<svg width="108" height="29" viewBox="0 0 108 29" fill="none" xmlns="http://www.w3.org/2000/svg">
<path d="M38.6078 20.9847C40.0972 20.9847 41.6542 20.6463 42.9856 19.6759C43.5948 19.2246 43.64 18.6154 43.1886 18.0738L42.9404 17.7579C42.5117 17.2389 42.0152 17.1937 41.406 17.5322C40.5259 18.0287 39.6684 18.2318 38.8335 18.2318C36.5995 18.2318 35.223 16.9004 35.2682 15.5239H43.3466C44.0236 15.5239 44.4749 15.2305 44.4523 14.5762C44.2943 10.8754 41.5865 8.88965 38.2919 8.88965C34.3881 8.88965 31.9285 11.7103 31.9285 14.9823C31.9285 18.2995 34.4558 20.9847 38.6078 20.9847ZM35.3584 13.5833C35.742 12.0714 37.1185 11.5298 38.3371 11.5298C39.533 11.5298 40.8644 12.0263 41.1803 13.5833H35.3584Z" fill="#53AC8E"/>
<path d="M46.9645 20.7365H48.2958C48.9954 20.7365 49.379 20.3529 49.379 19.6534V15.9978C49.379 13.0868 50.6201 12.2068 51.974 12.2068C52.1545 12.2068 52.3351 12.2293 52.5382 12.2519C53.012 12.3196 53.3279 12.0488 53.3279 11.417V9.8374C53.3279 9.38609 53.2151 8.95735 52.6735 8.91221L52.2899 8.88965C51.2971 8.88965 49.6723 9.54405 49.2887 11.6652V10.221C49.2887 9.52148 48.9051 9.13787 48.2056 9.13787H46.9645C46.2649 9.13787 45.8813 9.52148 45.8813 10.221V19.6534C45.8813 20.3529 46.2649 20.7365 46.9645 20.7365Z" fill="#53AC8E"/>
<path d="M59.9285 20.9847C63.6067 20.9847 66.3597 18.2769 66.3597 14.9372C66.3597 11.5975 63.6067 8.88965 59.9285 8.88965C56.2504 8.88965 53.4974 11.5975 53.4974 14.9372C53.4974 18.2995 56.2504 20.9847 59.9285 20.9847ZM59.9285 18.1641C58.1684 18.1641 56.8145 16.765 56.8145 14.9598C56.8145 13.132 58.1684 11.7329 59.9285 11.7329C61.6661 11.7329 63.0426 13.132 63.0426 14.9598C63.0426 16.765 61.6661 18.1641 59.9285 18.1641Z" fill="#53AC8E"/>
<path d="M73.5339 20.9847C77.2121 20.9847 79.9651 18.2769 79.9651 14.9372C79.9651 11.5975 77.2121 8.88965 73.5339 8.88965C69.8557 8.88965 67.1028 11.5975 67.1028 14.9372C67.1028 18.2995 69.8557 20.9847 73.5339 20.9847ZM73.5339 18.1641C71.7738 18.1641 70.4199 16.765 70.4199 14.9598C70.4199 13.132 71.7738 11.7329 73.5339 11.7329C75.2715 11.7329 76.648 13.132 76.648 14.9598C76.648 16.765 75.2715 18.1641 73.5339 18.1641Z" fill="#53AC8E"/>
<path d="M82.536 20.7365H83.8673C84.5668 20.7365 84.9505 20.3529 84.9505 19.6534V14.7567C84.9505 12.5904 86.011 11.7329 87.0491 11.7329C88.0871 11.7329 88.6963 12.613 88.6963 14.2377V19.6534C88.6963 20.3529 89.0799 20.7365 89.7795 20.7365H91.1108C91.8104 20.7365 92.194 20.3529 92.194 19.6534V14.6438C92.2391 12.5227 93.2997 11.7329 94.27 11.7329C95.308 11.7329 95.9399 12.613 95.9399 14.2377V19.6534C95.9399 20.3529 96.3235 20.7365 97.023 20.7365H98.3318C99.0313 20.7365 99.4375 20.3529 99.4375 19.6534V14.0797C99.4375 11.3493 98.1738 8.88965 95.1726 8.88965C93.8638 8.88965 92.5325 9.183 91.4493 10.898C90.7047 9.45379 89.4184 8.88965 88.0871 8.88965C86.6429 8.88965 85.4018 9.65688 84.9505 10.9882V10.221C84.9505 9.52148 84.5668 9.13787 83.8673 9.13787H82.536C81.8364 9.13787 81.4528 9.52148 81.4528 10.221V19.6534C81.4528 20.3529 81.8364 20.7365 82.536 20.7365Z" fill="#53AC8E"/>
<path d="M11.4051 5.11902C12.6779 5.14067 13.6654 6.17646 13.6453 7.46897C13.6264 8.68957 12.5376 9.73502 11.3143 9.70796C10.0195 9.67935 9.03896 8.63699 9.06293 7.31432C9.08574 6.06124 10.1142 5.09737 11.4051 5.11902Z" fill="#53AC8E"/>
<path d="M25.2872 5.11475C26.5959 5.12867 27.5834 6.15479 27.5621 7.47785C27.5424 8.70618 26.4761 9.7207 25.2203 9.70562C23.9989 9.69093 22.9689 8.61532 22.9863 7.37191C23.0037 6.11806 24.0407 5.1016 25.2872 5.11475Z" fill="#53AC8E"/>
<path d="M17.8469 20.1087C15.6094 19.9889 14.0416 18.655 13.5943 16.5158C13.4075 15.623 13.4941 14.7172 13.481 13.8163C13.4636 12.6089 12.5484 11.6558 11.3681 11.6311C10.212 11.6067 9.25859 12.5056 9.19286 13.6992C9.17082 14.1005 9.18938 14.5041 9.18938 14.907C9.15613 17.8674 10.212 20.3473 12.4839 22.2739C14.1878 23.7187 16.2354 24.3876 18.2605 24.3853C17.0976 24.3679 16.1596 23.4203 16.1596 22.253C16.1596 21.0858 17.0972 20.1381 18.2605 20.1207V20.1196C18.1241 20.1196 17.9864 20.1165 17.8469 20.1087Z" fill="#A0D2C1"/>
<path d="M27.3971 13.7796C27.3797 12.5969 26.4425 11.6423 25.2957 11.6303C24.1165 11.6183 23.1716 12.5076 23.1198 13.6976C23.097 14.2242 23.1105 14.7527 23.1062 15.2805C23.0985 16.2714 22.8886 17.2125 22.338 18.0472C21.3529 19.54 19.9327 20.1192 18.2605 20.1196C18.2714 20.1196 18.2815 20.1196 18.2923 20.1196C17.1142 20.1196 16.1596 21.0749 16.1596 22.253C16.1596 23.4311 17.0972 24.3679 18.2605 24.3853C18.2803 24.3853 18.2992 24.3849 18.319 24.3849C22.0032 24.3571 25.602 22.1088 26.9107 18.261C27.4095 16.7938 27.4195 15.2929 27.3971 13.7796Z" fill="#53AC8E"/>
</svg>
