<svg width="108" height="29" viewBox="0 0 108 29" fill="none" xmlns="http://www.w3.org/2000/svg">
<path fill-rule="evenodd" clip-rule="evenodd" d="M27.5621 7.47785C27.5834 6.15479 26.5959 5.12867 25.2872 5.11475C24.0407 5.1016 23.0037 6.11806 22.9863 7.37191C22.9689 8.61532 23.9989 9.69093 25.2203 9.70562C26.4761 9.7207 27.5424 8.70618 27.5621 7.47785ZM11.4051 5.11902C12.6779 5.14067 13.6654 6.17646 13.6453 7.46897C13.6264 8.68957 12.5376 9.73502 11.3143 9.70796C10.0195 9.67935 9.03896 8.63699 9.06293 7.31432C9.08574 6.06124 10.1142 5.09737 11.4051 5.11902ZM42.9858 19.6759C41.6544 20.6462 40.0974 20.9847 38.6081 20.9847C34.456 20.9847 31.9287 18.2994 31.9287 14.9823C31.9287 11.7103 34.3883 8.88962 38.2922 8.88962C41.5867 8.88962 44.2946 10.8754 44.4526 14.5761C44.4751 15.2305 44.0238 15.5239 43.3468 15.5239H35.2684C35.2233 16.9004 36.5998 18.2317 38.8337 18.2317C39.6687 18.2317 40.5262 18.0286 41.4062 17.5322C42.0155 17.1937 42.5119 17.2388 42.9407 17.7579L43.1889 18.0738C43.6402 18.6153 43.5951 19.2246 42.9858 19.6759ZM38.3373 11.5298C37.1188 11.5298 35.7423 12.0714 35.3587 13.5832H41.1806C40.8646 12.0262 39.5333 11.5298 38.3373 11.5298ZM48.2961 20.7365H46.9647C46.2652 20.7365 45.8816 20.3529 45.8816 19.6534V10.221C45.8816 9.52145 46.2652 9.13784 46.9647 9.13784H48.2058C48.9054 9.13784 49.289 9.52145 49.289 10.221V11.6652C49.6726 9.54402 51.2973 8.88962 52.2902 8.88962L52.6738 8.91218C53.2154 8.95731 53.3282 9.38606 53.3282 9.83737V11.417C53.3282 12.0488 53.0123 12.3196 52.5384 12.2519L52.4775 12.2451C52.2988 12.225 52.1365 12.2067 51.9743 12.2067C50.6203 12.2067 49.3792 13.0868 49.3792 15.9977V19.6534C49.3792 20.3529 48.9956 20.7365 48.2961 20.7365ZM59.9288 20.9847C63.6069 20.9847 66.3599 18.2769 66.3599 14.9372C66.3599 11.5975 63.6069 8.88962 59.9288 8.88962C56.2506 8.88962 53.4976 11.5975 53.4976 14.9372C53.4976 18.2994 56.2506 20.9847 59.9288 20.9847ZM59.9288 18.164C58.1687 18.164 56.8147 16.765 56.8147 14.9597C56.8147 13.1319 58.1687 11.7329 59.9288 11.7329C61.6663 11.7329 63.0428 13.1319 63.0428 14.9597C63.0428 16.765 61.6663 18.164 59.9288 18.164ZM79.9653 14.9372C79.9653 18.2769 77.2123 20.9847 73.5342 20.9847C69.856 20.9847 67.103 18.2994 67.103 14.9372C67.103 11.5975 69.856 8.88962 73.5342 8.88962C77.2123 8.88962 79.9653 11.5975 79.9653 14.9372ZM70.4201 14.9597C70.4201 16.765 71.7741 18.164 73.5342 18.164C75.2717 18.164 76.6482 16.765 76.6482 14.9597C76.6482 13.1319 75.2717 11.7329 73.5342 11.7329C71.7741 11.7329 70.4201 13.1319 70.4201 14.9597ZM82.5362 20.7365H83.8676C84.5671 20.7365 84.9507 20.3529 84.9507 19.6534V14.7566C84.9507 12.5904 86.0113 11.7329 87.0493 11.7329C88.0873 11.7329 88.6966 12.6129 88.6966 14.2376V19.6534C88.6966 20.3529 89.0802 20.7365 89.7797 20.7365H91.1111C91.8106 20.7365 92.1942 20.3529 92.1942 19.6534V14.6438C92.2394 12.5227 93.2999 11.7329 94.2702 11.7329C95.3083 11.7329 95.9401 12.6129 95.9401 14.2376V19.6534C95.9401 20.3529 96.3237 20.7365 97.0232 20.7365H98.332C99.0316 20.7365 99.4377 20.3529 99.4377 19.6534V14.0797C99.4377 11.3493 98.1741 8.88962 95.1729 8.88962C93.8641 8.88962 92.5327 9.18297 91.4496 10.8979C90.7049 9.45376 89.4187 8.88962 88.0873 8.88962C86.6431 8.88962 85.402 9.65685 84.9507 10.9882V10.221C84.9507 9.52145 84.5671 9.13784 83.8676 9.13784H82.5362C81.8367 9.13784 81.4531 9.52145 81.4531 10.221V19.6534C81.4531 20.3529 81.8367 20.7365 82.5362 20.7365ZM17.8469 20.1087C15.6094 19.9889 14.0416 18.655 13.5943 16.5158C13.4575 15.8617 13.4674 15.2006 13.4773 14.5396C13.4809 14.2984 13.4845 14.0572 13.481 13.8163C13.4636 12.6089 12.5484 11.6558 11.3681 11.6311C10.212 11.6067 9.25859 12.5056 9.19286 13.6992C9.17774 13.9746 9.18173 14.251 9.18573 14.5276C9.18755 14.6541 9.18938 14.7806 9.18938 14.907C9.15613 17.8674 10.212 20.3473 12.4839 22.2739C14.1878 23.7187 16.2354 24.3876 18.2605 24.3853L18.319 24.3849C22.0032 24.3571 25.602 22.1088 26.9107 18.261C27.4095 16.7938 27.4191 15.2925 27.3967 13.7792C27.3793 12.5965 26.4425 11.6423 25.2957 11.6303C24.1165 11.6183 23.1716 12.5076 23.1198 13.6976C23.1045 14.0512 23.1055 14.4056 23.1066 14.7601C23.1071 14.9336 23.1076 15.1071 23.1062 15.2805C23.0985 16.2714 22.8886 17.2125 22.338 18.0472C21.3529 19.54 19.9324 20.1188 18.2602 20.1192C18.1238 20.1192 17.9863 20.1165 17.8469 20.1087Z" fill="white"/>
</svg>
