<svg viewBox="0 0 128 128" fill="none" xmlns="http://www.w3.org/2000/svg">
<path d="M32.24 20.96C38.0924 21.0596 42.6329 25.8222 42.5404 31.7654C42.4533 37.3778 37.4471 42.1849 31.8222 42.0605C25.8684 41.9289 21.36 37.136 21.4702 31.0542C21.5751 25.2925 26.304 20.8605 32.24 20.96Z" fill="white"/>
<path d="M96.0711 20.9405C102.089 21.0045 106.629 25.7227 106.532 31.8062C106.441 37.4542 101.538 42.1191 95.7636 42.0498C90.1476 41.9822 85.4116 37.0365 85.4916 31.3191C85.5716 25.5538 90.3378 20.88 96.0693 20.9405H96.0711Z" fill="white"/>
<path d="M61.8596 89.8844C51.5716 89.3333 44.3627 83.2 42.3058 73.3635C41.4471 69.2587 41.8453 65.0933 41.7849 60.9511C41.7049 55.3991 37.4969 51.0169 32.0693 50.9031C26.7538 50.7911 22.3698 54.9244 22.0676 60.4124C21.9662 62.2578 22.0516 64.1138 22.0516 65.9662C21.8987 79.5787 26.7538 90.9813 37.2 99.84C45.0347 106.484 54.4498 109.559 63.7618 109.548C58.4142 109.468 54.1013 105.111 54.1013 99.744C54.1013 94.3769 58.4125 90.0195 63.7618 89.9395V89.9342C63.1342 89.9342 62.5013 89.92 61.8596 89.8844Z" fill="#D6ECE5"/>
<path d="M105.772 60.7822C105.692 55.344 101.383 50.9546 96.1102 50.8995C90.688 50.8444 86.3431 54.9333 86.1049 60.4053C86 62.8266 86.0622 65.2569 86.0427 67.6835C86.0071 72.24 85.0418 76.5671 82.5102 80.4053C77.9804 87.2693 71.4489 89.9306 63.76 89.9324V89.9378C63.8098 89.9378 63.8578 89.9342 63.9075 89.9342C58.4907 89.9342 54.0995 94.3253 54.0995 99.7422C54.0995 105.159 58.4107 109.467 63.76 109.547C63.8507 109.547 63.9396 109.547 64.0302 109.547C80.9707 109.419 97.5182 99.0809 103.536 81.3884C105.829 74.6418 105.874 67.7387 105.771 60.7804L105.772 60.7822Z" fill="white"/>
</svg>
