<svg width="61" height="72" viewBox="0 0 61 72" fill="none" xmlns="http://www.w3.org/2000/svg">
<rect x="18.5" y="0.5" width="24" height="19" rx="7.5" fill="white"/>
<rect x="18.5" y="0.5" width="24" height="19" rx="7.5" stroke="#BBDFD3"/>
<g filter="url(#filter0_d_604_1079)">
<path fill-rule="evenodd" clip-rule="evenodd" d="M30.5 51.6809C30.5 51.6809 45 38.5412 45 30.5213C45 22.5014 38.5081 16 30.5 16C22.4919 16 16 22.5014 16 30.5213C16 38.5412 30.5 51.6809 30.5 51.6809ZM30 33.3404C32.2091 33.3404 34 31.5495 34 29.3404C34 27.1313 32.2091 25.3404 30 25.3404C27.7909 25.3404 26 27.1313 26 29.3404C26 31.5495 27.7909 33.3404 30 33.3404Z" fill="#53AC8E"/>
<path d="M44.5 30.5213C44.5 32.3932 43.6471 34.6249 42.3011 36.9613C40.9624 39.285 39.1706 41.6539 37.3682 43.7857C35.5674 45.9156 33.7651 47.7981 32.4124 49.1486C31.7363 49.8236 31.1731 50.3651 30.7795 50.7373C30.6737 50.8373 30.5802 50.9252 30.5 51C30.4198 50.9252 30.3263 50.8373 30.2205 50.7373C29.8269 50.3651 29.2637 49.8236 28.5876 49.1486C27.2349 47.7981 25.4326 45.9156 23.6318 43.7857C21.8294 41.6539 20.0376 39.285 18.6989 36.9613C17.3529 34.6249 16.5 32.3932 16.5 30.5213C16.5 22.7768 22.7687 16.5 30.5 16.5C38.2313 16.5 44.5 22.7768 44.5 30.5213ZM30 33.8404C32.4853 33.8404 34.5 31.8257 34.5 29.3404C34.5 26.8551 32.4853 24.8404 30 24.8404C27.5147 24.8404 25.5 26.8551 25.5 29.3404C25.5 31.8257 27.5147 33.8404 30 33.8404Z" stroke="#F1F9F6" stroke-linejoin="round"/>
</g>
<defs>
<filter id="filter0_d_604_1079" x="0" y="4" width="61" height="67.6809" filterUnits="userSpaceOnUse" color-interpolation-filters="sRGB">
<feFlood flood-opacity="0" result="BackgroundImageFix"/>
<feColorMatrix in="SourceAlpha" type="matrix" values="0 0 0 0 0 0 0 0 0 0 0 0 0 0 0 0 0 0 127 0" result="hardAlpha"/>
<feOffset dy="4"/>
<feGaussianBlur stdDeviation="8"/>
<feComposite in2="hardAlpha" operator="out"/>
<feColorMatrix type="matrix" values="0 0 0 0 0 0 0 0 0 0 0 0 0 0 0 0 0 0 0.1 0"/>
<feBlend mode="normal" in2="BackgroundImageFix" result="effect1_dropShadow_604_1079"/>
<feBlend mode="normal" in="SourceGraphic" in2="effect1_dropShadow_604_1079" result="shape"/>
</filter>
</defs>
</svg>
