<svg width="62" height="72" viewBox="0 0 62 72" fill="none" xmlns="http://www.w3.org/2000/svg">
<rect x="14.5" y="0.5" width="33" height="19" rx="7.5" fill="white"/>
<rect x="14.5" y="0.5" width="33" height="19" rx="7.5" stroke="#BBDFD3"/>
<g filter="url(#filter0_d_604_1084)">
<path fill-rule="evenodd" clip-rule="evenodd" d="M31 52C31 52 45.5 38.7428 45.5 30.6512C45.5 22.5595 39.0081 16 31 16C22.9919 16 16.5 22.5595 16.5 30.6512C16.5 38.7428 31 52 31 52ZM30.5 33.4955C32.7091 33.4955 34.5 31.6886 34.5 29.4597C34.5 27.2308 32.7091 25.4239 30.5 25.4239C28.2909 25.4239 26.5 27.2308 26.5 29.4597C26.5 31.6886 28.2909 33.4955 30.5 33.4955Z" fill="#53AC8E"/>
<path d="M31.2779 51.0528C31.1728 51.1531 31.0798 51.2411 31 51.3164C30.9202 51.2411 30.8272 51.1531 30.7221 51.0528C30.3285 50.6772 29.7653 50.1309 29.0892 49.4499C27.7364 48.0872 25.9341 46.1878 24.1332 44.0388C22.3308 41.8879 20.5388 39.4976 19.1998 37.1526C17.8538 34.7953 17 32.5422 17 30.6512C17 22.8308 23.2729 16.5 31 16.5C38.7271 16.5 45 22.8308 45 30.6512C45 32.5422 44.1462 34.7953 42.8002 37.1526C41.4612 39.4976 39.6692 41.8879 37.8668 44.0388C36.0659 46.1878 34.2636 48.0872 32.9108 49.4499C32.2347 50.1309 31.6715 50.6772 31.2779 51.0528ZM30.5 33.9955C32.9895 33.9955 35 31.9606 35 29.4597C35 26.9589 32.9895 24.9239 30.5 24.9239C28.0105 24.9239 26 26.9589 26 29.4597C26 31.9606 28.0105 33.9955 30.5 33.9955Z" stroke="#F1F9F6" stroke-linejoin="round"/>
</g>
<defs>
<filter id="filter0_d_604_1084" x="0.5" y="4" width="61" height="68" filterUnits="userSpaceOnUse" color-interpolation-filters="sRGB">
<feFlood flood-opacity="0" result="BackgroundImageFix"/>
<feColorMatrix in="SourceAlpha" type="matrix" values="0 0 0 0 0 0 0 0 0 0 0 0 0 0 0 0 0 0 127 0" result="hardAlpha"/>
<feOffset dy="4"/>
<feGaussianBlur stdDeviation="8"/>
<feComposite in2="hardAlpha" operator="out"/>
<feColorMatrix type="matrix" values="0 0 0 0 0 0 0 0 0 0 0 0 0 0 0 0 0 0 0.1 0"/>
<feBlend mode="normal" in2="BackgroundImageFix" result="effect1_dropShadow_604_1084"/>
<feBlend mode="normal" in="SourceGraphic" in2="effect1_dropShadow_604_1084" result="shape"/>
</filter>
</defs>
</svg>
