<svg width="16" height="16" viewBox="0 0 16 16" fill="none" xmlns="http://www.w3.org/2000/svg">
<path fill-rule="evenodd" clip-rule="evenodd" d="M7.27429 1.2534L1.44095 5.89173C1.16236 6.11324 1 6.44989 1 6.80601V13.8323C1 14.4772 1.52233 15 2.16667 15H6.25V10.3293C6.25 9.68436 6.77233 9.16156 7.41667 9.16156H8.58333C9.22766 9.16156 9.75 9.68436 9.75 10.3293V15H13.8333C14.4777 15 15 14.4772 15 13.8323V6.80601C15 6.44989 14.8376 6.11324 14.559 5.89172L8.72571 1.2534C8.30079 0.915532 7.69921 0.915532 7.27429 1.2534ZM10.9167 13.8323H13.8333V6.80601L8 2.16769L2.16667 6.80601L2.16667 13.8323H5.08333V10.3293C5.08333 9.03946 6.128 7.99388 7.41667 7.99388H8.58333C9.872 7.99388 10.9167 9.03946 10.9167 10.3293V13.8323Z" fill="#212121"/>
</svg>
