<svg width="122" height="122" viewBox="0 0 122 122" fill="none" xmlns="http://www.w3.org/2000/svg">
<rect width="122" height="122" fill="#F1F9F6"/>
<path d="M40.1578 32.755C43.9985 32.8203 46.9782 35.9458 46.9175 39.846C46.8603 43.5292 43.575 46.6838 39.8837 46.6022C35.9765 46.5158 33.0178 43.3705 33.0902 39.3793C33.159 35.5982 36.2623 32.6897 40.1578 32.755Z" fill="#BBDFD3"/>
<path d="M82.047 32.7421C85.9962 32.7841 88.9758 35.8805 88.9117 39.8728C88.8522 43.5793 85.6345 46.6406 81.8452 46.5951C78.1597 46.5508 75.0517 43.3051 75.1042 39.5531C75.1567 35.7696 78.2845 32.7025 82.0458 32.7421H82.047Z" fill="#BBDFD3"/>
<path d="M59.5953 77.9866C52.8438 77.625 48.1129 73.6 46.7631 67.1448C46.1996 64.451 46.4609 61.7175 46.4213 58.9991C46.3688 55.3556 43.6073 52.4798 40.0454 52.4051C36.5571 52.3316 33.6801 55.0441 33.4818 58.6456C33.4153 59.8566 33.4713 61.0746 33.4713 62.2903C33.3709 71.2235 36.5571 78.7065 43.4124 84.52C48.5539 88.8798 54.7326 90.8982 60.8436 90.8912C57.3343 90.8387 54.5039 87.9791 54.5039 84.457C54.5039 80.9348 57.3331 78.0753 60.8436 78.0228V78.0193C60.4318 78.0193 60.0164 78.01 59.5953 77.9866Z" fill="#D6ECE5"/>
<path d="M88.4133 58.8883C88.3608 55.3195 85.5328 52.439 82.0724 52.4028C78.5141 52.3667 75.6628 55.05 75.5064 58.641C75.4376 60.23 75.4784 61.8248 75.4656 63.4173C75.4423 66.4075 74.8088 69.2472 73.1474 71.766C70.1748 76.2705 65.8884 78.017 60.8426 78.0182V78.0217C60.8753 78.0217 60.9068 78.0193 60.9394 78.0193C57.3846 78.0193 54.5029 80.901 54.5029 84.4558C54.5029 88.0107 57.3321 90.8375 60.8426 90.89C60.9021 90.89 60.9604 90.89 61.0199 90.89C72.1371 90.806 82.9964 84.0218 86.9456 72.4112C88.4506 67.9837 88.4798 63.4535 88.4121 58.8872L88.4133 58.8883Z" fill="#BBDFD3"/>
</svg>
