<svg width="16" height="16" viewBox="0 0 16 16" fill="none" xmlns="http://www.w3.org/2000/svg">
<path d="M7.99833 3C4.68592 3 2 5.03847 2 7.55889C2 9.12194 3.03971 10.4896 4.61927 11.32L3.95279 13.7069C3.94119 13.7542 3.94471 13.8038 3.96288 13.8491C3.98106 13.8944 4.013 13.9331 4.05442 13.9601C4.09583 13.9871 4.14471 14.001 4.19447 13.9999C4.24423 13.9989 4.29247 13.983 4.33269 13.9544L7.25187 12.0624C7.49847 12.0852 7.7484 12.1015 8.00167 12.1015C11.3141 12.1015 14 10.063 14 7.54261C14 5.02219 11.3107 3 7.99833 3Z" fill="black" fill-opacity="0.85"/>
</svg>
