<svg width="16" height="16" viewBox="0 0 16 16" fill="none" xmlns="http://www.w3.org/2000/svg">
<path d="M9 8C9 8.55228 8.55228 9 8 9C7.44772 9 7 8.55228 7 8C7 7.44772 7.44772 7 8 7C8.55228 7 9 7.44772 9 8Z" fill="#212121"/>
<path fill-rule="evenodd" clip-rule="evenodd" d="M15 8C15 11.866 11.866 15 8 15C4.13401 15 1 11.866 1 8C1 4.13401 4.13401 1 8 1C11.866 1 15 4.13401 15 8ZM7.5 13.9795V12C7.5 11.7239 7.72386 11.5 8 11.5C8.27614 11.5 8.5 11.7239 8.5 12V13.9795C11.4149 13.739 13.739 11.4149 13.9795 8.5H12C11.7239 8.5 11.5 8.27614 11.5 8C11.5 7.72386 11.7239 7.5 12 7.5H13.9795C13.739 4.5851 11.4149 2.26101 8.5 2.02054V4C8.5 4.27614 8.27614 4.5 8 4.5C7.72386 4.5 7.5 4.27614 7.5 4V2.02054C4.5851 2.26101 2.26101 4.5851 2.02054 7.5H4C4.27614 7.5 4.5 7.72386 4.5 8C4.5 8.27614 4.27614 8.5 4 8.5H2.02054C2.26101 11.4149 4.5851 13.739 7.5 13.9795Z" fill="#212121"/>
</svg>
