<svg width="16" height="16" viewBox="0 0 16 16" fill="none" xmlns="http://www.w3.org/2000/svg">
<path d="M12.2466 1.12809C12.1645 1.04607 12.0533 1 11.9373 1C11.8213 1 11.71 1.04607 11.628 1.12809L10.1869 2.5692L13.4304 5.81278L14.8715 4.37255C14.9122 4.33191 14.9445 4.28363 14.9666 4.23048C14.9886 4.17733 15 4.12035 15 4.06281C15 4.00526 14.9886 3.94828 14.9666 3.89513C14.9445 3.84198 14.9122 3.7937 14.8715 3.75306L12.2466 1.12809ZM12.8118 6.4314L9.56833 3.18782L3.88108 8.87525H4.0622C4.17822 8.87525 4.2895 8.92134 4.37154 9.00338C4.45359 9.08543 4.49968 9.19671 4.49968 9.31274V9.75023H4.93716C5.05318 9.75023 5.16446 9.79633 5.2465 9.87837C5.32855 9.96042 5.37464 10.0717 5.37464 10.1877V10.6252H5.81212C5.92815 10.6252 6.03942 10.6713 6.12147 10.7534C6.20351 10.8354 6.2496 10.9467 6.2496 11.0627V11.5002H6.68708C6.80311 11.5002 6.91438 11.5463 6.99643 11.6284C7.07847 11.7104 7.12456 11.8217 7.12456 11.9377V12.1188L12.8118 6.4314ZM6.2776 12.9658C6.25919 12.9169 6.24971 12.865 6.2496 12.8127V12.3752H5.81212C5.69609 12.3752 5.58482 12.3291 5.50277 12.2471C5.42073 12.165 5.37464 12.0537 5.37464 11.9377V11.5002H4.93716C4.82113 11.5002 4.70986 11.4541 4.62781 11.3721C4.54577 11.29 4.49968 11.1787 4.49968 11.0627V10.6252H4.0622C3.94617 10.6252 3.83489 10.5791 3.75285 10.4971C3.67081 10.415 3.62472 10.3038 3.62472 10.1877V9.75023H3.18723C3.13493 9.75015 3.08307 9.74066 3.03412 9.72223L2.8775 9.87798C2.83581 9.91997 2.80306 9.96998 2.78125 10.025L1.03133 14.3999C0.999506 14.4794 0.991716 14.5665 1.00892 14.6504C1.02613 14.7343 1.06758 14.8113 1.12814 14.8719C1.18869 14.9324 1.26568 14.9739 1.34957 14.9911C1.43346 15.0083 1.52055 15.0005 1.60005 14.9687L5.97486 13.2187C6.02986 13.1969 6.07987 13.1641 6.12186 13.1224L6.2776 12.9667V12.9658Z" fill="#212121"/>
</svg>
