<svg width="16" height="16" viewBox="0 0 16 16" fill="none" xmlns="http://www.w3.org/2000/svg">
<path d="M7.23916 2.34164C7.47864 1.60459 8.52136 1.60459 8.76085 2.34164L9.6165 4.97507C9.7236 5.30469 10.0308 5.52786 10.3773 5.52786H13.1463C13.9213 5.52786 14.2435 6.51955 13.6165 6.97507L11.3764 8.60263C11.096 8.80634 10.9787 9.16744 11.0858 9.49705L11.9414 12.1305C12.1809 12.8675 11.3373 13.4804 10.7104 13.0249L8.47023 11.3974C8.18984 11.1936 7.81016 11.1936 7.52977 11.3974L5.28964 13.0249C4.66267 13.4804 3.81908 12.8675 4.05856 12.1305L4.91422 9.49705C5.02132 9.16744 4.90399 8.80634 4.6236 8.60263L2.38347 6.97507C1.7565 6.51955 2.07872 5.52786 2.8537 5.52786H5.62266C5.96924 5.52786 6.2764 5.30469 6.3835 4.97507L7.23916 2.34164Z" fill="#53AC8E"/>
</svg>
