<svg width="16" height="16" viewBox="0 0 16 16" fill="none" xmlns="http://www.w3.org/2000/svg">
<path d="M15 9.46367C15 9.09368 14.8637 8.74466 14.6273 8.46734C14.8998 8.1474 15.0361 7.71992 14.9857 7.28635C14.8923 6.51052 14.1973 5.92746 13.3653 5.92746H10.1825C10.4265 5.30855 10.7563 4.36159 10.7563 3.36594C10.7563 1.90694 9.70963 1.06009 8.95668 1.00327C8.37613 0.96066 7.93186 1.33741 7.83851 1.94279C7.76696 2.42642 7.48691 3.20969 7.05013 4.14853C7.0072 4.24796 6.94997 4.33386 6.87842 4.41909C6.59905 4.73903 5.95376 5.45127 5.27986 5.99172C5.09316 5.79962 4.82809 5.67178 4.53441 5.67178H2.02482C1.45858 5.67178 1 6.127 1 6.68909V13.8264C1 14.3885 1.45858 14.8438 2.02482 14.8438H4.53373C4.85603 14.8438 5.13609 14.6943 5.3296 14.4663C6.66991 14.8295 7.91006 15 9.20812 15H12.4052C13.165 15 13.8321 14.488 13.9752 13.7832C14.0542 13.4132 13.997 13.0499 13.8321 12.7368C14.2477 12.4594 14.506 11.9893 14.506 11.4631C14.506 11.2068 14.4413 10.9653 14.3268 10.7441C14.7349 10.46 15 9.99059 15 9.46367ZM13.6236 10.2111C13.4805 10.2469 13.3653 10.3531 13.3367 10.4959C13.3006 10.6379 13.351 10.7874 13.4587 10.8801C13.6311 11.0295 13.7237 11.2358 13.7237 11.4563C13.7237 11.8054 13.473 12.1253 13.1289 12.2038C12.9858 12.2396 12.8706 12.3458 12.842 12.4885C12.8059 12.6306 12.8563 12.7801 12.964 12.8727C13.1793 13.0581 13.272 13.3354 13.2147 13.6201C13.1432 13.9617 12.7991 14.2181 12.4046 14.2181H9.20744C7.98842 14.2181 6.8205 14.0618 5.55855 13.7203V6.74658C6.35442 6.14864 7.1428 5.28759 7.46578 4.91759C7.58775 4.78232 7.68111 4.63283 7.75947 4.46914C8.08926 3.75757 8.51241 2.76123 8.61258 2.04966C8.6555 1.75813 8.83471 1.77234 8.89945 1.77234C9.28648 1.80075 9.97469 2.35607 9.97469 3.35917C9.97469 4.36227 9.57335 5.35861 9.35121 5.89973L9.3369 5.94234C9.30079 6.02757 9.27217 6.10603 9.24355 6.17705C9.20062 6.29813 9.21493 6.42596 9.28648 6.53284C9.35803 6.63971 9.48 6.69653 9.60878 6.69653H13.3653C13.7953 6.69653 14.168 6.98805 14.2109 7.36548C14.2471 7.67122 14.0965 7.97018 13.8307 8.11967C13.7088 8.19069 13.6372 8.31921 13.6372 8.45381C13.6372 8.58841 13.7088 8.71693 13.8307 8.78795C14.0672 8.92323 14.2178 9.17959 14.2178 9.44947C14.2184 9.8127 13.9677 10.1326 13.6236 10.2111Z" fill="#212121"/>
</svg>
