<svg width="195" height="194" viewBox="0 0 195 194" fill="none" xmlns="http://www.w3.org/2000/svg">
<path d="M75.4463 121.767C77.0721 119.041 75.971 117.303 79.143 117.28C80.0255 117.272 80.9278 117.029 81.8103 116.962C82.8398 116.882 83.8693 116.91 84.8909 117.045C88.2418 117.49 91.3065 119.12 93.8664 121.286C95.1504 122.372 96.319 123.596 97.3803 124.9C97.917 125.56 99.5547 129.133 100.433 128.95C100.974 128.839 101.86 127.297 102.218 126.871C104.062 124.677 106.563 122.976 109.194 121.863C112.072 120.646 115.498 120.162 118.555 120.953C121.54 121.728 123.778 123.866 124.677 126.82C124.971 127.782 125.082 128.803 125.142 129.801C125.269 131.892 124.514 131.617 123.735 133.561C123.071 135.223 121.107 137.365 119.97 138.745C117.78 141.408 114.886 144.508 112.004 146.401C109.122 148.289 108.045 149.902 104.607 149.684C102.095 149.525 99.662 148.845 97.3684 147.796C88.85 143.908 79.7353 140.994 76.3844 129.992C75.9233 128.473 74.9574 127.118 74.7586 125.544C74.5559 123.97 74.8779 122.268 75.9153 121.064" fill="#77BFA7"/>
<path d="M107.123 31.7773C104.492 37.3701 97.5555 37.7001 92.7855 40.8244C91.4698 44.9346 91.0763 47.7012 90.6788 49.3508C90.794 48.8778 90.162 47.6415 90.0229 47.1486C89.8281 46.453 89.6413 45.7574 89.4386 45.0657C89.1961 44.2429 88.9576 42.9669 88.2898 42.3508C85.6305 39.9022 84.3863 46.29 84.1916 47.6932C83.7344 50.9527 84.12 54.3315 85.3562 57.3843C85.7259 58.2945 86.183 59.2008 86.9065 59.8686C87.626 60.5364 88.6595 60.9379 89.6135 60.6954C88.8304 64.8533 90.5555 69.0469 92.4476 72.8311C94.3397 76.6153 96.4942 80.4711 96.6373 84.7005C92.3483 85.7976 87.4471 83.655 85.3403 79.7595C85.229 80.634 84.8474 81.755 83.969 81.7192C83.3171 81.6914 82.9156 80.9997 82.685 80.3916C82.1882 79.0878 81.8543 77.7204 81.6992 76.3331C81.5959 75.395 81.5641 74.4291 81.1904 73.5665C80.7134 72.4694 79.7396 71.6863 78.869 70.8675C76.2098 68.3592 74.2262 65.0759 73.5624 61.4825C72.8032 57.3922 73.7731 53.139 75.4823 49.3468C77.1916 45.5547 79.6124 42.1401 81.9377 38.6898C84.5255 34.846 87.0098 30.9306 89.7725 27.21C92.3761 23.7041 95.0274 20.0193 99.2846 18.4929C101.785 17.5945 104.607 17.4792 106.96 18.8546C109.099 16.883 111.81 15.8137 115.924 15.8137C120.034 15.8137 123.651 17.8688 127.436 21.486C131.216 25.1033 133.847 28.967 136.479 34.7228C139.11 40.4786 140.919 44.5887 141.412 50.6745C141.905 56.7602 144.035 64.3564 144.775 68.6335C145.395 72.211 145.383 78.1775 144.393 79.9861C143.407 81.7947 138.979 84.3189 136.268 83.826C134.129 87.0338 131.792 85.7817 129.491 85.6187C127.352 88.0872 122.666 89.6493 118.146 87.2643C118.309 83.8101 118.639 80.3598 119.132 78.3842C121.187 76.3291 123.079 73.6142 125.051 70.9827C125.543 64.0782 125.873 54.2082 127.189 49.7682C125.297 47.5501 124.128 45.495 123.306 40.2361C122.483 34.9732 121.135 36.7262 118.178 34.5876C115.216 32.4451 111.726 30.6246 107.123 31.7773Z" fill="#77BFA7"/>
<path d="M109.58 33.1249C113.03 33.3833 116.608 34.3095 119.303 36.5792C121.859 38.7297 122.928 41.7626 124.1 44.7836C124.438 45.6542 124.792 46.5247 125.194 47.3674C125.4 47.7967 125.619 48.218 125.857 48.6274C125.965 48.8103 126.072 48.9892 126.187 49.1681C126.267 49.2873 126.537 49.5814 126.565 49.6848C126.565 49.5099 126.565 49.331 126.565 49.1561C126.557 49.184 126.549 49.2158 126.541 49.2436C126.859 49.0011 127.181 48.7586 127.499 48.5122C127.479 48.5122 127.463 48.5082 127.443 48.5082C126.911 48.4486 126.45 49.0051 126.45 49.5019C126.45 50.0863 126.907 50.4361 127.443 50.4957C127.463 50.4957 127.479 50.4997 127.499 50.4997C127.932 50.5474 128.346 50.1578 128.457 49.7683C128.616 49.2237 128.374 48.854 128.079 48.4247C127.813 48.0312 127.567 47.6257 127.34 47.2084C126.939 46.469 126.593 45.7018 126.279 44.9227C125.599 43.2413 125.019 41.5162 124.236 39.8745C123.464 38.2606 122.451 36.7621 121.131 35.5457C119.76 34.2817 118.158 33.3277 116.437 32.6201C114.254 31.7258 111.917 31.3084 109.576 31.1335C109.039 31.0937 108.582 31.6184 108.582 32.1272C108.586 32.7036 109.039 33.0852 109.58 33.1249Z" fill="#767E84"/>
<path d="M126.537 40.2281C127.014 46.2661 126.402 52.3201 125.555 58.2945C124.736 64.0582 123.695 69.8935 124.474 75.7249C124.876 78.7419 125.746 81.6834 127.292 84.3188C127.936 85.4239 129.658 84.4222 129.01 83.3171C126.287 78.6664 125.917 73.1451 126.326 67.8862C126.788 61.9594 128.016 56.1202 128.473 50.1895C128.727 46.8743 128.791 43.5433 128.529 40.2281C128.485 39.6915 128.103 39.2344 127.535 39.2344C127.026 39.2344 126.493 39.6915 126.537 40.2281Z" fill="#767E84"/>
<path d="M90.2812 46.7034C90.4243 44.859 90.5197 41.7664 88.3176 41.0629C86.0717 40.3434 84.4181 42.5217 83.6788 44.3303C82.9036 46.2224 82.8281 48.3371 82.9076 50.3564C82.9951 52.6579 83.2415 54.9515 83.8258 57.1815C84.1279 58.3303 84.438 59.65 85.0581 60.6755C85.714 61.7647 86.9621 62.2457 88.1864 61.9634C89.4346 61.6772 88.9059 59.7613 87.6577 60.0475C87.0933 60.1786 86.7793 59.7573 86.5885 59.2803C86.2546 58.4575 85.9962 57.5949 85.7696 56.7403C85.2966 54.9634 85.0541 53.1628 84.9468 51.3343C84.8554 49.7562 84.7798 48.1264 85.0899 46.5682C85.237 45.8289 85.4556 45.1054 85.8133 44.4416C86.1194 43.8811 86.5408 43.1815 87.1847 42.9748C87.8287 42.7681 88.0791 43.2253 88.2023 43.7857C88.409 44.7278 88.3732 45.7534 88.2977 46.7074C88.254 47.244 88.7827 47.7011 89.2915 47.7011C89.8599 47.6971 90.2415 47.24 90.2812 46.7034Z" fill="#767E84"/>
<path d="M104.854 33.1009C104.023 34.3173 102.83 35.2156 101.598 35.9947C100.207 36.8732 98.7599 37.696 97.2852 38.4235C96.53 38.7931 95.7628 39.131 94.9678 39.4093C94.137 39.6994 93.1631 39.8187 92.4675 40.3871C91.8116 40.9198 91.5056 41.7426 91.1876 42.5018C90.8298 43.3604 90.5078 44.2309 90.1779 45.0975C89.4107 47.1009 88.6396 49.1043 87.8724 51.1037C87.6816 51.6046 88.0871 52.1929 88.568 52.328C89.1285 52.483 89.5976 52.1372 89.7923 51.6324C90.4562 49.9072 91.116 48.1821 91.7798 46.4569C92.1177 45.5745 92.4556 44.6881 92.7974 43.8056C92.9366 43.4518 93.0757 43.102 93.2307 42.7562C93.3659 42.466 93.505 42.0566 93.7872 41.8738C94.0456 41.7028 94.4391 41.6631 94.7333 41.5756C95.1626 41.4484 95.5839 41.3014 96.0053 41.1424C96.8122 40.8363 97.5992 40.4825 98.3744 40.1009C99.8451 39.3695 101.288 38.5546 102.675 37.6722C104.182 36.7142 105.561 35.5933 106.575 34.1106C106.877 33.6654 106.658 33.0095 106.217 32.7511C105.724 32.457 105.16 32.6557 104.854 33.1009Z" fill="#767E84"/>
<path d="M88.9416 56.78C88.9734 58.6642 89.0807 60.5443 89.2715 62.4166C89.4543 64.2172 89.6451 66.0537 90.0903 67.8106C90.9052 71.0344 92.9285 73.7374 94.2561 76.7425C95.075 78.5948 95.4884 80.6022 95.8104 82.5897C95.8978 83.1184 96.5537 83.4165 97.0347 83.2853C97.5991 83.1303 97.8138 82.5937 97.7303 82.061C97.4441 80.2921 97.0784 78.5272 96.4344 76.8498C95.8422 75.3035 95.0551 73.8566 94.2601 72.4057C93.5168 71.0463 92.7655 69.6749 92.2766 68.1962C91.732 66.5545 91.5293 64.8055 91.3345 63.0963C91.096 60.9975 90.9648 58.8907 90.933 56.78C90.9092 55.504 88.9217 55.5001 88.9416 56.78Z" fill="#767E84"/>
<path d="M99.1045 79.8652C100.583 81.1094 102.11 82.2502 103.966 82.8584C105.731 83.4348 107.746 83.9595 109.61 83.7687C113.45 83.3752 116.535 80.8192 119.182 78.1997C120.725 76.6693 122.132 75.0157 123.424 73.2707C123.742 72.8374 123.495 72.1617 123.066 71.9113C122.561 71.6171 122.024 71.8357 121.706 72.269C119.739 74.9283 117.405 77.4802 114.758 79.4757C113.426 80.4774 111.956 81.3082 110.314 81.6659C108.656 82.0276 107.07 81.6421 105.461 81.2287C104.515 80.9822 103.628 80.6642 102.789 80.1594C101.974 79.6705 101.235 79.0782 100.512 78.466C100.102 78.1202 99.51 78.0646 99.1045 78.466C98.7508 78.8158 98.6911 79.5194 99.1045 79.8652Z" fill="#767E84"/>
<path d="M114.938 51.5053C114.223 52.7495 113.646 54.0931 113.149 55.4366C112.259 57.8375 111.675 60.4292 112.068 62.9891C112.152 63.5218 112.816 63.8119 113.293 63.6847C113.861 63.5297 114.068 62.9931 113.988 62.4604C113.646 60.2623 114.342 57.8971 115.113 55.846C115.531 54.733 116.031 53.5962 116.655 52.507C117.291 51.398 115.574 50.3923 114.938 51.5053Z" fill="#767E84"/>
<path d="M98.5651 42.5416C99.7258 42.4184 100.93 42.474 102.083 42.6251C101.924 42.6052 102.254 42.6529 102.29 42.6569C102.417 42.6768 102.54 42.6966 102.663 42.7205C102.918 42.7682 103.176 42.8238 103.427 42.8835C103.951 43.0107 104.472 43.1696 104.969 43.3763C105.915 43.7659 106.849 44.3979 107.561 45.2128C107.914 45.6182 108.606 45.5745 108.968 45.2128C109.369 44.8113 109.321 44.2151 108.968 43.8056C107.354 41.9533 104.929 41.0391 102.552 40.6972C101.24 40.5104 99.8808 40.411 98.5611 40.5501C98.0285 40.6058 97.5674 40.9675 97.5674 41.5439C97.5714 42.0407 98.0285 42.5972 98.5651 42.5416Z" fill="#767E84"/>
<path d="M117.836 47.4825C118.595 47.1844 119.414 47.0016 120.217 46.8704C120.778 46.779 121.676 46.7114 122.412 46.7392C123.274 46.771 124.081 46.93 124.916 47.244C125.417 47.4348 126.005 47.0334 126.14 46.5484C126.295 45.9919 125.949 45.5149 125.444 45.3241C123.668 44.6563 121.744 44.6404 119.887 44.9147C119.017 45.0459 118.126 45.2406 117.304 45.5586C116.803 45.7534 116.457 46.2264 116.608 46.7829C116.747 47.2639 117.335 47.6773 117.836 47.4825Z" fill="#767E84"/>
<path d="M101.864 52.6501C102.679 52.6501 103.339 51.9899 103.339 51.1754C103.339 50.3609 102.679 49.7007 101.864 49.7007C101.05 49.7007 100.39 50.3609 100.39 51.1754C100.39 51.9899 101.05 52.6501 101.864 52.6501Z" fill="#767E84"/>
<path d="M121.016 56.3667C121.83 56.3667 122.49 55.7064 122.49 54.892C122.49 54.0775 121.83 53.4172 121.016 53.4172C120.201 53.4172 119.541 54.0775 119.541 54.892C119.541 55.7064 120.201 56.3667 121.016 56.3667Z" fill="#767E84"/>
<path d="M105.112 13.6154C100.406 13.1742 95.6157 14.7682 92.0303 17.8329C90.0428 19.5342 88.5442 21.7364 87.149 23.9266C85.6782 26.2321 84.3545 28.629 83.0984 31.0538C81.8225 33.5103 80.6101 35.9987 79.3858 38.4791C78.1575 40.9634 76.8815 43.4319 75.7606 45.964C74.6595 48.4524 73.7532 51.0162 73.1172 53.6596C72.4812 56.299 71.9525 59.0974 72.0877 61.8203C72.2268 64.6147 73.2563 67.1507 74.9616 69.3489C76.5834 71.4358 78.6464 73.1172 80.8128 74.6079C81.254 74.91 81.9139 74.6913 82.1722 74.2501C82.4584 73.7572 82.2597 73.1967 81.8145 72.8906C78.3523 70.5136 74.9258 67.3694 74.1944 63.0326C73.7731 60.5403 74.2342 57.897 74.7469 55.4523C75.2796 52.9163 76.0388 50.4319 77.0206 48.031C78.0184 45.5864 79.2427 43.2371 80.4113 40.872C81.5919 38.483 82.7605 36.0901 83.965 33.7131C85.1416 31.3837 86.3619 29.0742 87.6935 26.8283C88.9814 24.658 90.3369 22.44 92.0501 20.5757C95.3533 16.9783 100.262 15.1458 105.112 15.599C105.649 15.6506 106.106 15.1061 106.106 14.6052C106.106 14.0328 105.649 13.6671 105.112 13.6154Z" fill="#767E84"/>
<path d="M82.2753 62.2934C82.5853 65.4058 82.1838 68.5023 81.0788 71.4279C80.5382 72.8629 79.93 74.2621 79.8187 75.8084C79.7154 77.2632 80.1447 78.6982 81.1464 79.7754C82.1679 80.8725 83.6029 81.4569 84.9624 82.0014C85.4592 82.2002 86.0555 81.7828 86.1867 81.3058C86.3417 80.7374 85.9919 80.2842 85.491 80.0815C84.3025 79.6045 82.8755 79.044 82.1958 77.8833C81.3491 76.4444 81.9652 74.6397 82.5058 73.2127C83.1617 71.4876 83.7699 69.7942 84.068 67.9657C84.3741 66.0855 84.4536 64.1855 84.2628 62.2894C84.2111 61.7568 83.8454 61.2957 83.269 61.2957C82.7721 61.2996 82.2236 61.7568 82.2753 62.2934Z" fill="#767E84"/>
<path d="M84.4696 70.7004C84.4656 72.4136 84.4617 74.1229 84.4577 75.8361C84.4537 76.6908 84.4537 77.5493 84.4498 78.404C84.4458 79.2387 84.3861 80.1053 84.5451 80.9321C84.8274 82.4108 86.1431 83.5556 87.2839 84.4221C88.4764 85.3284 89.8836 85.869 91.3623 86.0797C93.0636 86.3182 94.7609 86.2148 96.4662 86.0678C97.0028 86.0201 97.4599 85.6424 97.4599 85.074C97.4599 84.5732 97.0028 84.0326 96.4662 84.0803C94.8245 84.2194 93.1113 84.3943 91.4776 84.1001C89.7802 83.7941 88.4208 82.9712 87.2362 81.731C86.9818 81.4607 86.7075 81.1706 86.5684 80.8208C86.4253 80.463 86.4373 80.0655 86.4373 79.6839C86.4333 78.6981 86.4412 77.7163 86.4452 76.7305C86.4492 74.7231 86.4571 72.7158 86.4611 70.7084C86.4611 69.4205 84.4736 69.4205 84.4696 70.7004Z" fill="#767E84"/>
<path d="M108.439 14.8915C109.508 13.9296 110.904 13.5082 112.295 13.2737C113.869 13.0074 115.542 12.908 117.136 13.0233C118.806 13.1465 120.293 13.8103 121.747 14.5974C123.031 15.289 124.272 16.0602 125.464 16.8989C130.202 20.226 134.141 24.6899 136.904 29.7739C140.036 35.5337 141.292 41.9732 141.968 48.4366C142.33 51.8988 142.56 55.3729 142.906 58.8391C143.248 62.2854 143.785 65.6801 144.457 69.0747C145.041 72.0401 145.669 75.4507 144.262 78.2928C143.01 80.8249 140.497 82.3155 138.013 83.4444C137.405 83.7226 136.789 83.977 136.165 84.2235C135.668 84.4222 135.318 84.8873 135.469 85.4478C135.6 85.9208 136.189 86.3421 136.693 86.1434C139.5 85.0264 142.437 83.7425 144.492 81.4489C146.81 78.8612 147.33 75.4904 146.953 72.1315C146.758 70.4143 146.408 68.7249 146.07 67.0356C145.721 65.2866 145.438 63.5257 145.22 61.7528C144.767 58.1157 144.52 54.4547 144.19 50.8056C143.554 43.7858 142.541 36.75 139.432 30.3423C136.729 24.7694 132.679 19.9 127.769 16.1357C126.553 15.2016 125.277 14.339 123.957 13.5599C122.499 12.7013 120.964 11.8507 119.327 11.3935C117.55 10.9006 115.674 10.9563 113.853 11.1034C112.207 11.2345 110.574 11.4929 109.051 12.1647C108.312 12.4946 107.644 12.9438 107.04 13.4844C106.082 14.343 107.489 15.7462 108.439 14.8915Z" fill="#767E84"/>
<path d="M137.742 62.6274C138.08 64.428 138.176 66.2605 138.219 68.089C138.263 69.9255 138.291 71.7699 138.191 73.6023C138.017 76.7903 137.353 79.9941 135.469 82.6335C134.558 83.9055 133.362 84.9351 131.951 85.6148C131.466 85.8493 131.339 86.537 131.593 86.9742C131.883 87.4671 132.467 87.5625 132.952 87.332C135.882 85.9209 137.877 83.1503 138.978 80.1611C140.29 76.6035 140.282 72.696 140.219 68.9556C140.183 66.658 140.08 64.3644 139.654 62.1027C139.555 61.574 138.919 61.2759 138.43 61.407C137.885 61.5581 137.643 62.0987 137.742 62.6274Z" fill="#767E84"/>
<path d="M118.177 88.6476C118.356 88.6635 118.571 88.8583 118.718 88.9457C118.929 89.0769 119.139 89.2041 119.362 89.3114C119.859 89.5499 120.379 89.7407 120.916 89.856C122.061 90.1024 123.214 90.0746 124.362 89.8798C126.561 89.5022 128.858 88.5641 130.607 87.1689C131.029 86.835 130.957 86.1115 130.607 85.7617C130.194 85.3483 129.621 85.4278 129.2 85.7617C128.485 86.3341 127.622 86.7515 126.771 87.0854C125.782 87.475 124.752 87.8287 123.695 87.9838C122.788 88.1189 121.846 88.0792 120.968 87.8168C119.974 87.5187 119.239 86.7555 118.177 86.6561C117.641 86.6084 117.184 87.149 117.184 87.6499C117.184 88.2302 117.641 88.5999 118.177 88.6476Z" fill="#767E84"/>
<path d="M92.5235 84.3746C90.8897 84.9668 89.6694 86.1434 88.302 87.165C86.9028 88.2104 85.4122 89.1247 83.85 89.9038C83.369 90.1423 83.2339 90.822 83.4923 91.2632C83.7785 91.7522 84.3707 91.8595 84.8517 91.621C86.3662 90.8618 87.8171 89.9793 89.1845 88.9697C90.4167 88.0594 91.5893 86.8192 93.0521 86.2865C93.5569 86.1037 93.8948 85.6108 93.7477 85.0622C93.6126 84.5813 93.0283 84.1877 92.5235 84.3746Z" fill="#767E84"/>
<path d="M80.9117 91.4062C77.4733 92.245 74.0349 93.0877 70.5966 93.9264C67.671 94.6419 64.2644 95.103 61.9827 97.2574C60.7465 98.4261 59.9833 99.9763 59.2638 101.487C59.0333 101.972 59.1287 102.56 59.6216 102.846C60.0549 103.101 60.7505 102.977 60.981 102.489C61.5574 101.276 62.1338 100.004 63.048 99.0064C63.9623 98.0087 65.1707 97.4363 66.4467 97.0348C67.9174 96.5737 69.4359 96.2518 70.9344 95.8861C72.5721 95.4846 74.2098 95.0831 75.8515 94.6856C77.7158 94.2285 79.5801 93.7753 81.4404 93.3182C82.6806 93.0201 82.1559 91.1002 80.9117 91.4062Z" fill="#767E84"/>
<path d="M57.861 104.377C55.484 108.288 53.3653 112.382 51.9105 116.731C50.4318 121.163 49.279 125.703 47.5539 130.051C45.8367 134.384 43.5709 138.466 41.6828 142.724C39.8026 146.965 38.1848 151.365 37.036 155.861C36.4596 158.119 36.0264 160.412 35.764 162.73C35.5136 164.972 35.3864 167.285 35.6328 169.531C35.8674 171.681 36.5948 173.573 38.0139 175.223C39.2183 176.622 40.7884 177.723 42.4301 178.55C46.3534 180.53 50.6305 180.931 54.9672 180.697C59.781 180.434 64.5907 179.985 69.3885 179.528C74.2539 179.067 79.1074 178.526 83.949 177.855C88.4884 177.223 93.0716 176.61 97.4958 175.402C98.5611 175.112 99.6105 174.782 100.648 174.408C101.153 174.225 101.491 173.732 101.344 173.184C101.208 172.695 100.628 172.305 100.119 172.488C95.9137 173.999 91.4935 174.746 87.0892 175.402C82.4424 176.098 77.7837 176.686 73.1131 177.171C68.4345 177.656 63.748 178.069 59.0575 178.423C54.6691 178.753 50.1813 179.226 45.9162 177.851C42.8117 176.849 39.2143 174.838 38.0735 171.566C37.3779 169.571 37.4494 167.333 37.5488 165.25C37.6521 163.036 37.9622 160.838 38.4193 158.671C39.3455 154.275 40.8123 149.978 42.5096 145.824C44.2228 141.63 46.3892 137.647 48.2336 133.513C50.1138 129.3 51.4414 124.915 52.7929 120.515C53.4528 118.373 54.1206 116.234 54.9871 114.163C55.8378 112.132 56.8355 110.164 57.9048 108.24C58.4414 107.274 59.0019 106.324 59.5743 105.382C60.246 104.281 58.5249 103.284 57.861 104.377Z" fill="#767E84"/>
<path d="M121.532 89.6017C121.878 90.7068 122.872 91.5773 123.758 92.2491C126.223 94.1054 129.307 94.7772 132.249 95.4609C135.186 96.1446 138.096 96.9674 140.966 97.9055C143.904 98.8635 146.821 99.9288 149.596 101.292C150.868 101.92 152.112 102.612 153.257 103.455C153.495 103.629 153.169 103.387 153.308 103.49C153.368 103.534 153.424 103.582 153.479 103.629C153.599 103.729 153.718 103.828 153.833 103.932C154.028 104.106 154.219 104.289 154.394 104.484C154.473 104.576 154.553 104.667 154.628 104.762C154.716 104.87 154.525 104.615 154.6 104.727C154.64 104.782 154.68 104.838 154.716 104.894C154.775 104.985 154.831 105.076 154.883 105.172C154.902 105.208 154.918 105.247 154.938 105.283C155.065 105.494 154.879 105.116 154.946 105.295C155.141 105.796 155.614 106.142 156.17 105.991C156.647 105.859 157.061 105.271 156.866 104.766C156.063 102.719 153.96 101.403 152.124 100.378C149.437 98.8714 146.531 97.7346 143.629 96.713C140.668 95.6715 137.655 94.7692 134.61 93.9941C131.665 93.2428 128.58 92.8056 125.909 91.2831C125.635 91.1241 125.364 90.9572 125.102 90.7783C124.987 90.6988 124.871 90.6153 124.76 90.5319C124.939 90.667 124.649 90.4404 124.601 90.4007C124.287 90.1383 124.013 89.8482 123.746 89.5421C123.579 89.3513 123.858 89.721 123.734 89.5262C123.695 89.4666 123.651 89.4109 123.611 89.3473C123.556 89.2599 123.508 89.1724 123.456 89.085C123.397 88.9856 123.269 88.7391 123.468 89.1366C123.46 89.1168 123.452 89.0969 123.444 89.073C123.071 87.8527 121.151 88.3734 121.532 89.6017Z" fill="#767E84"/>
<path d="M156.596 109.206C156.568 109.202 156.421 109.143 156.397 109.151C156.318 109.179 156.449 109.02 156.397 109.183C156.389 109.202 156.473 109.377 156.481 109.413C156.6 109.815 156.647 110.252 156.715 110.665C156.85 111.496 156.969 112.327 157.069 113.162C157.275 114.911 157.407 116.667 157.482 118.424C157.633 121.954 157.55 125.492 157.347 129.018C157.144 132.556 156.818 136.085 156.481 139.611C156.143 143.149 155.864 146.699 155.443 150.224C155.026 153.683 153.925 156.902 152.653 160.13C151.504 163.04 150.264 165.918 148.801 168.684C147.35 171.431 145.684 174.082 143.673 176.455C141.988 178.447 140.076 180.176 137.389 180.522C135.981 180.705 134.578 180.51 133.191 180.264C131.494 179.965 129.808 179.6 128.131 179.194C124.776 178.375 121.469 177.382 118.169 176.36C114.87 175.338 111.575 174.289 108.244 173.371C104.817 172.425 101.355 171.63 97.8731 170.906C94.395 170.183 90.901 169.531 87.4109 168.871C85.6937 168.545 83.9367 168.291 82.2394 167.869C81.357 167.651 81.0787 166.919 81.027 166.041C80.9515 164.749 81.2616 163.612 81.5637 162.304C81.9413 160.663 82.4064 159.045 82.951 157.451C83.4876 155.881 84.0957 154.335 84.7834 152.824C85.3439 151.592 85.9123 150.304 86.759 149.235C87.5778 148.197 88.6193 147.521 89.9509 147.382C91.529 147.219 93.0991 147.633 94.5977 148.074C97.9367 149.056 101.28 149.922 104.698 150.59C111.642 151.95 118.686 152.78 125.587 154.378C127.248 154.764 128.902 155.193 130.54 155.682C131.768 156.048 132.293 154.132 131.068 153.766C123.993 151.655 116.659 150.686 109.401 149.437C105.763 148.809 102.134 148.11 98.5687 147.156C95.3569 146.297 91.7794 144.636 88.4205 145.673C85.4313 146.595 84.0123 149.68 82.8476 152.319C81.4166 155.563 80.2638 158.93 79.5165 162.4C79.0316 164.65 78.3558 168.08 80.8601 169.444C81.5716 169.829 82.3944 169.917 83.1775 170.072C84.0639 170.247 84.9543 170.413 85.8408 170.584C87.6812 170.934 89.5216 171.28 91.362 171.634C98.6244 173.025 105.799 174.635 112.875 176.801C119.763 178.908 126.64 181.265 133.779 182.37C136.629 182.811 139.519 182.521 141.948 180.844C143.22 179.965 144.261 178.844 145.247 177.664C146.324 176.376 147.318 175.017 148.232 173.609C150.025 170.847 151.508 167.893 152.827 164.876C154.211 161.712 155.594 158.469 156.52 155.138C157.51 151.58 157.689 147.835 158.039 144.174C158.392 140.474 158.766 136.773 159.06 133.068C159.645 125.687 159.867 118.242 158.758 110.9C158.54 109.457 158.44 107.41 156.604 107.223C156.067 107.167 155.61 107.72 155.61 108.217C155.602 108.797 156.063 109.155 156.596 109.206Z" fill="#767E84"/>
<path d="M150.69 104.643C148.118 107.06 146.778 110.383 145.256 113.495C143.57 116.954 141.881 120.408 140.196 123.866C139.23 125.846 138.264 127.825 137.298 129.805C137.063 130.286 137.167 130.878 137.656 131.164C138.093 131.419 138.781 131.291 139.015 130.806C140.689 127.38 142.358 123.954 144.032 120.527C145.665 117.176 147.251 113.797 148.945 110.478C149.787 108.833 150.737 107.322 152.093 106.05C153.027 105.172 151.62 103.769 150.69 104.643Z" fill="#767E84"/>
<path d="M61.9866 110.538C61.7243 111.719 61.6766 112.927 61.6408 114.131C61.605 115.336 61.5772 116.54 61.5653 117.745C61.5414 120.154 61.5613 122.562 61.6328 124.971C61.7759 129.821 62.1178 134.662 62.6584 139.48C62.9645 142.223 63.3341 144.954 63.7595 147.68C63.8429 148.213 64.5068 148.503 64.9838 148.376C65.5482 148.221 65.7629 147.684 65.6794 147.152C64.2126 137.787 63.5051 128.298 63.5488 118.818C63.5567 117.514 63.5766 116.214 63.6084 114.911C63.6442 113.631 63.6283 112.323 63.9065 111.067C64.1768 109.819 62.2609 109.286 61.9866 110.538Z" fill="#767E84"/>
<path d="M87.5659 146.555C85.161 145.55 82.5335 145.053 79.9219 145.117C78.6062 145.148 77.4813 145.355 76.4478 146.218C75.5375 146.977 74.7862 147.967 74.1423 148.952C72.8345 150.948 71.968 153.206 71.1054 155.42C70.6125 156.684 70.1752 157.948 70.0282 159.303C69.9805 159.733 69.9645 160.126 70.2825 160.464C70.4853 160.683 70.7595 160.858 70.9901 161.048C71.5108 161.474 72.0395 161.891 72.5682 162.3C74.9094 164.109 77.3461 165.787 79.8782 167.313C80.9753 167.977 81.977 166.26 80.8799 165.596C77.6562 163.648 74.5795 161.47 71.6857 159.057C71.7811 159.291 71.8805 159.526 71.9759 159.76C72.0673 158.155 72.7431 156.636 73.3274 155.157C73.864 153.794 74.4285 152.442 75.136 151.155C75.8158 149.918 76.6227 148.73 77.6721 147.776C78.1769 147.319 78.7016 147.16 79.3773 147.124C80.1882 147.076 80.9992 147.092 81.8061 147.16C83.6028 147.307 85.3677 147.78 87.0292 148.471C87.5261 148.678 88.1224 148.249 88.2535 147.776C88.4165 147.207 88.0627 146.766 87.5659 146.555Z" fill="#767E84"/>
<path d="M77.1519 145.92C72.8628 145.172 68.4466 145.792 64.5352 147.7C62.5954 148.646 60.6477 149.906 59.3598 151.667C58.7118 152.558 58.2468 153.567 57.8095 154.573C57.3524 155.63 56.9271 156.803 57.4995 157.908C58.052 158.977 59.2604 159.335 60.3774 159.423C61.705 159.526 63.0724 159.311 64.3206 158.854C64.0662 158.822 63.8118 158.787 63.5534 158.755C65.7953 160.472 68.7726 161.04 71.5074 160.396C72.7515 160.106 72.2268 158.186 70.9787 158.481C68.8719 158.973 66.638 158.516 64.8731 157.276C64.5273 157.03 64.245 156.835 63.7879 156.942C63.5017 157.01 63.2235 157.137 62.9373 157.212C62.3291 157.371 61.7169 157.455 61.0849 157.463C60.4569 157.471 59.0895 157.515 59.2047 156.573C59.2644 156.096 59.4989 155.626 59.6937 155.193C59.9481 154.625 60.2144 154.06 60.5244 153.524C61.1127 152.506 61.8998 151.699 62.8538 151.015C64.7101 149.688 66.789 148.73 68.9991 148.161C71.4795 147.525 74.0991 147.398 76.6232 147.835C77.1519 147.927 77.6925 147.692 77.8475 147.14C77.9787 146.663 77.6845 146.015 77.1519 145.92Z" fill="#767E84"/>
<path d="M55.2294 154.366C54.0886 153.997 52.9398 154.354 51.9222 154.903C50.8688 155.471 49.8791 156.171 48.8694 156.811C46.9376 158.035 44.8586 159.164 43.0937 160.627C41.5037 161.943 40.1125 164.129 40.7246 166.271C41.0228 167.313 41.8178 168.156 42.9268 168.271C43.9841 168.382 44.9978 167.818 45.6616 167.019C46.3731 166.16 46.8581 165.154 47.6173 164.332C48.3328 163.561 49.1675 162.94 50.1891 162.658C51.4214 162.32 50.8967 160.4 49.6604 160.742C47.9313 161.219 46.5679 162.384 45.4986 163.787C45.1488 164.244 43.5787 167.233 42.7797 166.061C42.414 165.524 42.573 164.729 42.7916 164.169C43.0977 163.386 43.6741 162.742 44.3021 162.197C44.9699 161.613 45.7331 161.148 46.4804 160.675C47.3629 160.114 48.2453 159.558 49.1278 158.997C50.1215 158.369 51.1113 157.737 52.1051 157.109C52.8603 156.632 53.7706 155.98 54.7007 156.282C55.9211 156.68 56.4418 154.76 55.2294 154.366Z" fill="#767E84"/>
<path d="M116.079 151.337C119.192 148.519 122.074 145.454 124.689 142.171C125.309 141.392 125.91 140.569 126.681 139.929C127.42 139.313 128.326 138.916 129.189 138.51C131.033 137.64 132.671 136.542 134.138 135.123C134.746 134.535 135.366 133.891 136.221 133.716C136.507 133.657 136.3 133.76 136.237 133.688C136.014 133.446 136.097 133.565 136.113 133.756C136.137 134.062 136.141 134.368 136.137 134.67C136.129 135.255 136.082 135.835 135.982 136.411C135.891 136.94 136.121 137.481 136.678 137.636C137.155 137.767 137.807 137.473 137.902 136.94C138.109 135.743 138.224 134.499 138.057 133.291C137.878 131.979 136.646 131.51 135.469 131.848C134.432 132.146 133.613 132.874 132.85 133.605C132.083 134.34 131.296 135.024 130.397 135.6C128.537 136.793 126.347 137.385 124.765 138.995C123.954 139.822 123.278 140.784 122.543 141.678C121.807 142.573 121.056 143.447 120.281 144.306C118.512 146.273 116.636 148.145 114.676 149.922C113.726 150.793 115.133 152.196 116.079 151.337Z" fill="#767E84"/>
<path d="M125.317 146.118C127.097 144.027 129.26 142.489 131.629 141.126C132.901 140.394 134.185 139.683 135.477 138.991C136.622 138.375 137.77 137.683 138.971 137.182C139.499 136.96 140.835 136.495 140.879 137.449C140.927 138.466 139.742 139.007 138.967 139.357C136.876 140.303 134.694 141.038 132.611 142.012C130.289 143.093 128.059 144.496 126.454 146.528C126.12 146.949 126.044 147.521 126.454 147.935C126.799 148.281 127.523 148.36 127.861 147.935C129.407 145.979 131.518 144.699 133.756 143.67C134.884 143.149 136.037 142.696 137.19 142.235C138.406 141.75 139.706 141.316 140.831 140.641C142.008 139.937 142.954 138.76 142.858 137.321C142.767 135.914 141.646 134.925 140.255 134.897C138.852 134.869 137.548 135.672 136.343 136.296C134.92 137.035 133.509 137.798 132.11 138.578C129.089 140.267 126.175 142.06 123.91 144.723C123.564 145.132 123.508 145.729 123.91 146.13C124.267 146.476 124.967 146.528 125.317 146.118Z" fill="#767E84"/>
<path d="M140.374 140.7C140.509 141.793 139.714 142.533 138.835 143.038C137.695 143.697 136.454 144.206 135.266 144.771C134.097 145.323 132.925 145.864 131.855 146.587C130.782 147.311 129.792 148.149 128.81 148.988C128.401 149.338 128.453 150.038 128.81 150.395C129.216 150.801 129.804 150.745 130.218 150.395C131.231 149.533 132.245 148.67 133.382 147.971C134.578 147.231 135.886 146.675 137.15 146.074C139.332 145.041 142.743 143.733 142.365 140.704C142.298 140.172 141.956 139.71 141.371 139.71C140.879 139.706 140.306 140.164 140.374 140.7Z" fill="#767E84"/>
<path d="M137.575 144.953C137.122 145.832 136.673 146.754 136.005 147.493C135.333 148.237 134.455 148.67 133.62 149.207C132.714 149.787 131.991 150.487 131.422 151.401C130.929 152.2 130.556 153.086 129.864 153.738C128.93 154.617 130.337 156.02 131.271 155.145C132.042 154.418 132.499 153.48 133.036 152.581C133.537 151.743 134.157 151.202 134.988 150.701C135.898 150.149 136.808 149.604 137.512 148.793C138.247 147.939 138.78 146.957 139.297 145.959C139.543 145.482 139.42 144.882 138.939 144.6C138.49 144.337 137.822 144.476 137.575 144.953Z" fill="#767E84"/>
<path d="M133.454 161.537C133.454 162.777 133.454 164.018 133.454 165.254C133.454 166.454 133.374 167.683 133.47 168.879C133.569 170.135 134.293 170.878 135.433 171.312C136.487 171.713 137.596 171.864 138.602 171.244C140.577 170.024 140.732 167.233 140.732 165.15C140.728 162.861 140.287 160.559 139.468 158.421C138.629 156.223 137.481 154.012 135.183 153.09C134.686 152.892 134.09 153.309 133.959 153.786C133.804 154.354 134.154 154.807 134.654 155.01C136.022 155.559 136.789 157.141 137.333 158.409C138.049 160.086 138.526 161.907 138.681 163.727C138.761 164.646 138.765 165.572 138.693 166.49C138.629 167.289 138.554 168.195 138.152 168.907C137.791 169.551 137.274 169.809 136.558 169.598C136.268 169.515 135.942 169.428 135.688 169.257C135.418 169.074 135.445 168.78 135.445 168.466C135.422 166.156 135.445 163.843 135.445 161.533C135.441 160.257 133.454 160.257 133.454 161.537Z" fill="#767E84"/>
<path d="M74.4964 95.6158C77.5889 97.969 81.0869 99.7697 84.7916 100.95C88.7905 102.226 92.9364 102.556 97.1102 102.727C101.507 102.91 105.935 103.248 110.335 103.101C114.31 102.97 118.281 102.322 122.093 101.185C126.35 99.9168 130.429 98.0366 134.157 95.6198C135.226 94.9242 134.233 93.203 133.155 93.9026C126.768 98.0485 119.338 100.557 111.73 101.046C107.453 101.32 103.144 100.986 98.8711 100.811C94.7808 100.644 90.6906 100.521 86.7156 99.4438C82.6571 98.3427 78.857 96.4466 75.51 93.9026C75.0807 93.5767 74.397 93.835 74.1506 94.2604C73.8405 94.7692 74.0671 95.2899 74.4964 95.6158Z" fill="#767E84"/>
<path d="M68.7481 95.6158C71.2842 99.6265 75.1518 102.361 79.6635 103.729C82.2154 104.504 84.8469 105.037 87.4386 105.657C90.1098 106.293 92.7532 106.881 95.4919 107.135C100.858 107.64 106.304 107.835 111.686 107.569C116.782 107.314 121.882 106.583 126.763 105.072C131.867 103.49 136.685 101.073 140.835 97.6867C141.252 97.3489 141.189 96.6334 140.835 96.2796C140.425 95.8702 139.845 95.9377 139.428 96.2796C132.161 102.214 122.729 104.786 113.515 105.466C108.303 105.851 103.068 105.688 97.8571 105.335C95.2813 105.16 92.7651 104.866 90.2489 104.281C87.6612 103.685 85.0774 103.069 82.4977 102.437C79.9775 101.817 77.5329 101.046 75.3466 99.6106C73.379 98.3188 71.7095 96.5976 70.4534 94.6141C69.7816 93.5329 68.0605 94.5306 68.7481 95.6158Z" fill="#767E84"/>
<path d="M94.8722 146.079C87.5979 143.368 80.427 138.339 77.3782 130.942C75.9273 127.416 75.0926 122.658 77.9029 119.537C79.3895 117.888 81.5996 117.109 83.7501 116.791C86.0159 116.457 88.3611 116.703 90.5235 117.431C92.825 118.202 94.8682 119.557 96.4065 121.441C97.8216 123.175 98.7756 125.258 99.833 127.213C100.115 127.73 100.994 127.909 101.395 127.416C102.814 125.651 104.134 123.783 105.788 122.225C107.501 120.615 109.588 119.541 111.857 118.945C114.306 118.301 116.914 118.23 119.39 118.77C120.439 119.001 121.457 119.319 122.383 119.871C123.071 120.281 123.751 120.873 124.168 121.457C125.122 122.797 125.42 124.288 125.337 125.925C125.249 127.646 124.673 129.443 123.862 131.041C121.632 135.43 118.146 139.087 114.37 142.179C112.283 143.888 110.053 145.443 107.731 146.818C106.861 147.335 106.014 147.704 105.008 147.903C103.772 148.15 102.472 148.046 101.24 147.824C100.711 147.728 100.171 147.967 100.016 148.519C99.8846 149 100.179 149.648 100.711 149.744C103.18 150.185 105.597 150.117 107.878 149C108.912 148.495 109.89 147.839 110.848 147.207C111.929 146.496 112.986 145.749 114.016 144.966C118.257 141.742 122.204 137.922 124.899 133.283C126.938 129.773 128.334 125.269 126.438 121.394C124.247 116.914 118.237 116.012 113.797 116.564C110.736 116.946 107.795 118.039 105.366 119.967C103.236 121.656 101.677 123.91 99.988 126.009C100.509 126.076 101.029 126.144 101.55 126.211C100.525 124.311 99.5825 122.348 98.2708 120.619C96.8358 118.731 95.0073 117.232 92.8528 116.234C90.5036 115.145 87.9159 114.593 85.3282 114.672C82.8478 114.748 80.2163 115.34 78.1374 116.743C76.138 118.091 74.8143 120.158 74.3214 122.515C73.8365 124.824 74.0909 127.165 74.7467 129.415C75.979 133.653 78.5111 137.409 81.7149 140.41C85.3322 143.797 89.7166 146.277 94.3435 148.002C94.8483 148.189 95.4326 147.792 95.5678 147.307C95.7188 146.746 95.377 146.269 94.8722 146.079Z" fill="#767E84"/>
<path fill-rule="evenodd" clip-rule="evenodd" d="M109.196 72.2588C111.666 72.7263 113.121 71.4393 113.3 70.4914C113.48 69.5434 112.596 67.8136 110.126 67.3461C107.656 66.8786 106.201 68.1656 106.022 69.1135C105.842 70.0615 106.726 71.7913 109.196 72.2588ZM108.824 74.2239C111.919 74.8098 114.803 73.3053 115.265 70.8633C115.728 68.4214 113.593 65.9669 110.498 65.381C107.403 64.795 104.519 66.2996 104.057 68.7415C103.594 71.1835 105.729 73.638 108.824 74.2239Z" fill="#767E84"/>
</svg>
