<svg width="32" height="32" viewBox="0 0 32 32" fill="none" xmlns="http://www.w3.org/2000/svg">
<path d="M16.7489 11.6706H15.251V17.0154H16.7489V11.6706Z" fill="#BDBDBD"/>
<path d="M23.2578 11.6706V12.784H25.1429V17.0154H26.6401V12.784H28.5252V11.6706H23.2578Z" fill="#BDBDBD"/>
<path d="M21.1717 13.7863H19.9191C19.5866 13.7863 19.3166 13.6564 19.3166 13.2848C19.3166 12.9131 19.5866 12.7833 19.9191 12.7833H22.611V11.6706H19.741C18.6698 11.6706 17.8013 12.257 17.8013 13.2848C17.8013 14.3126 18.6698 14.899 19.741 14.899H21.0291C21.3617 14.899 21.6309 15.0296 21.6309 15.4005C21.6309 15.7714 21.3617 15.9013 21.0291 15.9013H18.0087V17.0147H21.1709C22.2421 17.0147 23.1106 16.4298 23.1106 15.4013C23.1106 14.3727 22.2421 13.7856 21.1709 13.7856" fill="#BDBDBD"/>
<path d="M10.6906 11.6706L8.57193 16.4801L6.55224 14.3426L9.07784 11.6706H7.36692L4.97353 14.2075V11.6706H3.47559V17.0154H4.97353V14.4778L7.36692 17.0154H9.85848L11.5742 12.9845L12.8195 15.9486H10.8394L11.3097 17.0154H14.8123L12.4577 11.6706H10.6906Z" fill="#BDBDBD"/>
<mask id="mask0_158_11311" style="mask-type:luminance" maskUnits="userSpaceOnUse" x="0" y="18" width="32" height="3">
<path d="M0 19.2603C5.22698 19.9645 10.5688 20.3294 16 20.3294C21.4312 20.3294 26.7738 19.9645 32 19.2603C26.773 18.556 21.432 18.1912 16 18.1912C10.568 18.1912 5.22698 18.556 0 19.2603Z" fill="white"/>
</mask>
<g mask="url(#mask0_158_11311)">
<path d="M32 18.1912H0V20.3294H32V18.1912Z" fill="#BDBDBD"/>
</g>
</svg>
