<svg width="33" height="32" viewBox="0 0 33 32" fill="none" xmlns="http://www.w3.org/2000/svg">
<path d="M16.8076 18.0513C17.9405 18.0513 18.8589 17.1329 18.8589 16C18.8589 14.8671 17.9405 13.9487 16.8076 13.9487C15.6747 13.9487 14.7563 14.8671 14.7563 16C14.7563 17.1329 15.6747 18.0513 16.8076 18.0513Z" fill="#BDBDBD"/>
<path fill-rule="evenodd" clip-rule="evenodd" d="M27.705 16C27.705 22.0185 22.8261 26.8974 16.8076 26.8974C10.7891 26.8974 5.91016 22.0185 5.91016 16C5.91016 9.98152 10.7891 5.10257 16.8076 5.10257C22.8261 5.10257 27.705 9.98152 27.705 16ZM21.9358 14.9744H25.5949C25.1255 10.9084 21.8992 7.68211 17.8332 7.21267V10.8718C17.8332 11.4382 17.374 11.8974 16.8076 11.8974C16.2411 11.8974 15.782 11.4382 15.782 10.8718V7.21267C11.716 7.68211 8.4897 10.9084 8.02026 14.9744H11.6794C12.2458 14.9744 12.705 15.4336 12.705 16C12.705 16.5665 12.2458 17.0256 11.6794 17.0256H8.02026C8.4897 21.0916 11.716 24.3179 15.782 24.7873V21.1282C15.782 20.5618 16.2411 20.1026 16.8076 20.1026C17.374 20.1026 17.8332 20.5618 17.8332 21.1282V24.7873C21.8992 24.3179 25.1255 21.0916 25.5949 17.0256H21.9358C21.3694 17.0256 20.9102 16.5665 20.9102 16C20.9102 15.4336 21.3694 14.9744 21.9358 14.9744Z" fill="#BDBDBD"/>
</svg>
