<svg width="25" height="24" viewBox="0 0 25 24" fill="none" xmlns="http://www.w3.org/2000/svg">
<g id="document">
<g id="Vector">
<path fill-rule="evenodd" clip-rule="evenodd" d="M20.4 2H5.39999C5.13478 2 4.88042 2.10536 4.69289 2.29289C4.50535 2.48043 4.39999 2.73478 4.39999 3V21C4.39999 21.2652 4.50535 21.5196 4.69289 21.7071C4.88042 21.8946 5.13478 22 5.39999 22H13.9V17C13.9 15.622 15.022 14.5 16.4 14.5H21.4V3C21.4 2.73478 21.2946 2.48043 21.1071 2.29289C20.9196 2.10536 20.6652 2 20.4 2Z" fill="#BDBDBD"/>
<path fill-rule="evenodd" clip-rule="evenodd" d="M15.4 17V20.7929C15.4 21.2383 15.9386 21.4614 16.2535 21.1464L20.5464 16.8536C20.8614 16.5386 20.6383 16 20.1929 16H16.4C16.1348 16 15.8804 16.1054 15.6929 16.2929C15.5054 16.4804 15.4 16.7348 15.4 17Z" fill="#BDBDBD"/>
</g>
</g>
</svg>
