<svg viewBox="0 0 16 16" fill="none" xmlns="http://www.w3.org/2000/svg">
<path fill-rule="evenodd" clip-rule="evenodd" d="M13.76 8.13636C13.76 7.71091 13.7218 7.30182 13.6509 6.90909H8V9.23H11.2291C11.09 9.98 10.6673 10.6155 10.0318 11.0409V12.5464H11.9709C13.1055 11.5018 13.76 9.96363 13.76 8.13636Z" fill="#4285F4"/>
<path fill-rule="evenodd" clip-rule="evenodd" d="M8.00005 14C9.62005 14 10.9782 13.4627 11.971 12.5463L10.0319 11.0409C9.4946 11.4009 8.80732 11.6136 8.00005 11.6136C6.43732 11.6136 5.1146 10.5582 4.64278 9.13998H2.63823V10.6945C3.62551 12.6554 5.6546 14 8.00005 14Z" fill="#34A853"/>
<path fill-rule="evenodd" clip-rule="evenodd" d="M4.64273 9.13997C4.52273 8.77997 4.45455 8.39542 4.45455 7.99997C4.45455 7.60451 4.52273 7.21997 4.64273 6.85997V5.30542H2.63818C2.23182 6.11542 2 7.03178 2 7.99997C2 8.96815 2.23182 9.88451 2.63818 10.6945L4.64273 9.13997Z" fill="#FBBC05"/>
<path fill-rule="evenodd" clip-rule="evenodd" d="M8.00005 4.38636C8.88096 4.38636 9.67187 4.68909 10.2937 5.28364L12.0146 3.56273C10.9755 2.59455 9.61732 2 8.00005 2C5.6546 2 3.62551 3.34455 2.63823 5.30545L4.64278 6.86C5.1146 5.44182 6.43732 4.38636 8.00005 4.38636Z" fill="#EA4335"/>
</svg>
