<svg xmlns="http://www.w3.org/2000/svg" viewBox="0 0 24 24">
  <path fill-rule="evenodd" d="M20.374 6.444c-1.088-1.97-4.27-2.707-6.508-.34a2.575 2.575 0 0 1-3.733 0c-2.234-2.366-5.416-1.63-6.506.34-.528.956-.752 2.5.251 4.674 1.02 2.212 3.299 5.006 7.647 8.128.28.2.67.2.95 0 4.348-3.122 6.626-5.916 7.648-8.128 1.004-2.174.78-3.718.251-4.674ZM12.413 4.73a.575.575 0 0 1-.825 0c-6.202-6.567-19.284 3.178-1.23 16.14a2.823 2.823 0 0 0 3.282 0C31.696 7.909 18.619-1.836 12.412 4.73Z" clip-rule="evenodd"/>
  <path fill-rule="evenodd" d="M20.374 6.444c-1.088-1.97-4.27-2.707-6.508-.34a2.575 2.575 0 0 1-3.733 0c-2.234-2.366-5.416-1.63-6.506.34-.528.956-.752 2.5.251 4.674 1.02 2.212 3.299 5.006 7.647 8.128.28.2.67.2.95 0 4.348-3.122 6.626-5.916 7.648-8.128 1.004-2.174.78-3.718.251-4.674ZM12.413 4.73a.575.575 0 0 1-.825 0c-6.202-6.567-19.284 3.178-1.23 16.14a2.823 2.823 0 0 0 3.282 0C31.696 7.909 18.619-1.836 12.412 4.73Z" clip-rule="evenodd"/>
</svg>
