<svg width="24" height="24" viewBox="0 0 24 24" fill="none" xmlns="http://www.w3.org/2000/svg">
<path d="M3.875 4C3.50416 4 3.14165 4.10828 2.83331 4.31113C2.52496 4.51399 2.28464 4.80232 2.14273 5.13966C2.00081 5.477 1.96368 5.8482 2.03603 6.20632C2.10838 6.56444 2.28695 6.89339 2.54918 7.15158C2.8114 7.40977 3.14549 7.5856 3.50921 7.65683C3.87292 7.72807 4.24992 7.69151 4.59253 7.55178C4.93514 7.41205 5.22798 7.17542 5.43401 6.87182C5.64003 6.56822 5.75 6.21129 5.75 5.84615C5.75 5.35652 5.55246 4.88695 5.20083 4.54073C4.8492 4.1945 4.37228 4 3.875 4ZM3.875 10.1538C3.50416 10.1538 3.14165 10.2621 2.83331 10.465C2.52496 10.6678 2.28464 10.9562 2.14273 11.2935C2.00081 11.6308 1.96368 12.002 2.03603 12.3602C2.10838 12.7183 2.28695 13.0472 2.54918 13.3054C2.8114 13.5636 3.14549 13.7394 3.50921 13.8107C3.87292 13.8819 4.24992 13.8454 4.59253 13.7056C4.93514 13.5659 5.22798 13.3293 5.43401 13.0257C5.64003 12.7221 5.75 12.3651 5.75 12C5.75 11.5104 5.55246 11.0408 5.20083 10.6946C4.8492 10.3484 4.37228 10.1538 3.875 10.1538ZM3.875 16.3077C3.50416 16.3077 3.14165 16.416 2.83331 16.6188C2.52496 16.8217 2.28464 17.11 2.14273 17.4474C2.00081 17.7847 1.96368 18.1559 2.03603 18.514C2.10838 18.8721 2.28695 19.2011 2.54918 19.4593C2.8114 19.7175 3.14549 19.8933 3.50921 19.9645C3.87292 20.0358 4.24992 19.9992 4.59253 19.8595C4.93514 19.7197 5.22798 19.4831 5.43401 19.1795C5.64003 18.8759 5.75 18.519 5.75 18.1538C5.75 17.6642 5.55246 17.1946 5.20083 16.8484C4.8492 16.5022 4.37228 16.3077 3.875 16.3077ZM21.375 16.9231H8.875C8.70924 16.9231 8.55027 16.9879 8.43306 17.1033C8.31585 17.2187 8.25 17.3753 8.25 17.5385V18.7692C8.25 18.9324 8.31585 19.089 8.43306 19.2044C8.55027 19.3198 8.70924 19.3846 8.875 19.3846H21.375C21.5408 19.3846 21.6997 19.3198 21.8169 19.2044C21.9342 19.089 22 18.9324 22 18.7692V17.5385C22 17.3753 21.9342 17.2187 21.8169 17.1033C21.6997 16.9879 21.5408 16.9231 21.375 16.9231ZM21.375 4.61538H8.875C8.70924 4.61538 8.55027 4.68022 8.43306 4.79563C8.31585 4.91103 8.25 5.06756 8.25 5.23077V6.46154C8.25 6.62475 8.31585 6.78127 8.43306 6.89668C8.55027 7.01209 8.70924 7.07692 8.875 7.07692H21.375C21.5408 7.07692 21.6997 7.01209 21.8169 6.89668C21.9342 6.78127 22 6.62475 22 6.46154V5.23077C22 5.06756 21.9342 4.91103 21.8169 4.79563C21.6997 4.68022 21.5408 4.61538 21.375 4.61538ZM21.375 10.7692H8.875C8.70924 10.7692 8.55027 10.8341 8.43306 10.9495C8.31585 11.0649 8.25 11.2214 8.25 11.3846V12.6154C8.25 12.7786 8.31585 12.9351 8.43306 13.0505C8.55027 13.1659 8.70924 13.2308 8.875 13.2308H21.375C21.5408 13.2308 21.6997 13.1659 21.8169 13.0505C21.9342 12.9351 22 12.7786 22 12.6154V11.3846C22 11.2214 21.9342 11.0649 21.8169 10.9495C21.6997 10.8341 21.5408 10.7692 21.375 10.7692Z"/>
</svg>
