<svg width="24" height="24" viewBox="0 0 24 24" fill="none" xmlns="http://www.w3.org/2000/svg">
<path d="M12 3.84003C9.79632 3.84003 8.01 5.6381 8.01 7.85628C8.01 9.64956 10.6178 12.918 11.6168 14.1044C11.8192 14.3448 12.1811 14.3448 12.3832 14.1044C13.3823 12.918 15.99 9.64956 15.99 7.85628C15.99 5.6381 14.2037 3.84003 12 3.84003ZM3.51714 10.7234C3.32909 10.7991 3.1679 10.9298 3.05433 11.0986C2.94077 11.2674 2.88005 11.4666 2.88 11.6704V19.6494C2.88 20.0102 3.24195 20.2569 3.57477 20.1231L7.94667 18.12V10.6906C7.66674 10.1812 7.43779 9.68526 7.27375 9.21096L3.51714 10.7234ZM12 15.3045C11.5545 15.3045 11.133 15.1075 10.8439 14.7639C10.2213 14.0244 9.55914 13.1823 8.96 12.3185V18.1197L15.04 20.1597V12.3188C14.4409 13.1823 13.779 14.0247 13.1562 14.7642C12.867 15.1075 12.4456 15.3045 12 15.3045ZM20.4252 8.977L16.0533 10.98V20.16L20.4829 18.3766C20.6709 18.3009 20.8322 18.1703 20.9457 18.0015C21.0593 17.8327 21.12 17.6335 21.12 17.4296V9.45066C21.12 9.08984 20.7581 8.84313 20.4252 8.977Z" fill="#212121"/>
</svg>
