<svg xmlns="http://www.w3.org/2000/svg" viewBox="0 0 24 24">
  <path fill-rule="evenodd" d="M19.407 7.916c0 3.303-4.831 8.216-6.69 9.984a1.034 1.034 0 0 1-1.434 0c-1.859-1.768-6.69-6.68-6.69-9.984a7.407 7.407 0 0 1 14.814 0Zm-4.938.038a2.47 2.47 0 1 1-4.938 0 2.47 2.47 0 0 1 4.938 0Z" clip-rule="evenodd"/>
  <path d="M14.242 19.504a3.247 3.247 0 0 1-4.484 0 47.83 47.83 0 0 1-2.654-2.733 1.124 1.124 0 0 0-.836-.378H5.032c-.412 0-.79.23-.981.595l-2.549 4.885c-.384.737.15 1.619.981 1.619h19.034c.83 0 1.365-.882.981-1.619l-2.549-4.885a1.107 1.107 0 0 0-.981-.595h-1.236c-.32 0-.623.14-.836.378a47.85 47.85 0 0 1-2.654 2.733Z"/>
</svg>
