<svg xmlns="http://www.w3.org/2000/svg" viewBox="0 0 24 24">
  <path fill-rule="evenodd" d="M2.884 18.159A10.95 10.95 0 0 1 1 12C1 5.925 5.925 1 12 1s11 4.925 11 11a10.95 10.95 0 0 1-1.884 6.159A10.99 10.99 0 0 1 12 23a10.99 10.99 0 0 1-9.116-4.841Zm1.94-.726a.87.87 0 0 1 .208-1.247C6.92 14.899 9.35 14.125 12 14.125s5.08.774 6.968 2.06a.869.869 0 0 1 .208 1.248A8.986 8.986 0 0 1 12 21c-2.93 0-5.532-1.4-7.176-3.567ZM12 12.593a3.688 3.688 0 1 0 0-7.374 3.688 3.688 0 0 0 0 7.375Z" clip-rule="evenodd"/>
</svg>
