<svg xmlns="http://www.w3.org/2000/svg" viewBox="0 0 24 24">
  <path fill-rule="evenodd" d="M15.604 10.245c-.287 1.249-1.147 1.799-1.776 2.202-.651.416-.876.59-.876 1.179a.9.9 0 1 1-1.8 0c0-1.605.986-2.235 1.706-2.696.572-.365.875-.58.992-1.088.101-.441.021-.831-.24-1.159-.342-.429-.953-.707-1.558-.707-.978 0-1.774.797-1.774 1.775a.9.9 0 1 1-1.8 0 3.578 3.578 0 0 1 3.574-3.574c1.149 0 2.285.53 2.966 1.385.602.756.81 1.709.586 2.683m-3.536 7.739a1.2 1.2 0 1 1 0-2.4 1.2 1.2 0 0 1 0 2.4ZM12 1C5.924 1 1 5.925 1 12c0 6.076 4.924 11 11 11 6.075 0 11-4.924 11-11 0-6.075-4.925-11-11-11Z" clip-rule="evenodd"/>
</svg>
