<svg xmlns="http://www.w3.org/2000/svg" viewBox="0 0 24 24">
  <path fill-rule="evenodd" d="M5.236 21.813V10.316H3.478a2 2 0 0 0-2 2v7.496a2 2 0 0 0 2 2h1.758Zm8.04-17.438a.695.695 0 0 0-.588.325L8.88 10.748V20h7.572a2.662 2.662 0 0 0 2.57-1.966l1.824-6.736a.831.831 0 0 0-.803-1.048H14.97a1 1 0 0 1-1-1V5.07a.695.695 0 0 0-.695-.695Zm-2.281-.74A2.695 2.695 0 0 1 15.97 5.07v3.18h4.073a2.831 2.831 0 0 1 2.733 3.571l-1.824 6.736a4.662 4.662 0 0 1-4.5 3.443H7.88a1 1 0 0 1-1-1V10.46a1 1 0 0 1 .154-.533l3.96-6.292Z" clip-rule="evenodd"/>
</svg>
