<svg viewBox="0 0 16 16" fill="none" xmlns="http://www.w3.org/2000/svg">
<path d="M6.95631 1.74536C7.02087 0.809613 7.90812 0.086649 8.8638 0.32557L9.12522 0.390925C9.58765 0.506532 9.99923 0.847028 10.1366 1.35552C10.357 2.17153 10.6699 3.86722 10.1994 5.86506C10.3353 5.84646 10.484 5.82894 10.6422 5.81456C11.3547 5.74979 12.311 5.74329 13.1581 6.02567C13.6764 6.19842 14.1524 6.70592 14.3576 7.29798C14.5421 7.83037 14.5183 8.45986 14.1237 9.03128C14.1824 9.14963 14.2275 9.27315 14.262 9.3939C14.3392 9.66405 14.375 9.96112 14.375 10.25C14.375 10.5389 14.3392 10.836 14.262 11.1061C14.2235 11.2409 14.1718 11.3792 14.1026 11.5099C14.2709 11.8966 14.2091 12.3289 14.0993 12.6581C13.9915 12.9816 13.8121 13.2967 13.6107 13.559C13.6647 13.7113 13.6875 13.8711 13.6875 14.0234C13.6875 14.3294 13.5982 14.6485 13.4341 14.9356C13.099 15.5221 12.4371 16 11.5 16H8C7.39536 16 6.93094 15.9187 6.53434 15.7821C6.14176 15.647 5.83632 15.4639 5.56354 15.2977L5.51594 15.2687C5.0118 14.9609 4.51741 14.6591 3.44792 14.5457C2.68233 14.4645 2 13.8451 2 13.0007V8.99966C2 8.14944 2.68549 7.56763 3.35693 7.38447C4.20585 7.1529 4.93091 6.59763 5.48879 5.9742C6.04895 5.34822 6.4031 4.69541 6.52757 4.33627C6.72691 3.76112 6.88374 2.79696 6.95631 1.74536Z"  />
</svg>
