<svg viewBox="0 0 16 16" fill="none" xmlns="http://www.w3.org/2000/svg">
<path fill-rule="evenodd" clip-rule="evenodd" d="M14.6273 8.46734C14.8637 8.74466 15 9.09368 15 9.46367C15 9.99059 14.7349 10.46 14.3268 10.7441C14.4413 10.9653 14.506 11.2068 14.506 11.4631C14.506 11.9893 14.2477 12.4594 13.8321 12.7368C13.997 13.0499 14.0542 13.4132 13.9752 13.7832C13.8321 14.488 13.165 15 12.4052 15H9.20812C8.12899 15 7.0899 14.8822 6 14.6338V5.34892C6.38171 4.97733 6.70256 4.62048 6.87842 4.41909C6.94997 4.33386 7.0072 4.24796 7.05013 4.14853C7.48691 3.20969 7.76696 2.42642 7.83851 1.94279C7.93186 1.33741 8.37613 0.96066 8.95668 1.00327C9.70963 1.06009 10.7563 1.90694 10.7563 3.36594C10.7563 4.36159 10.4265 5.30855 10.1825 5.92746H13.3653C14.1973 5.92746 14.8923 6.51052 14.9857 7.28635C15.0361 7.71992 14.8998 8.1474 14.6273 8.46734ZM5 5.78486V14.7304C4.86049 14.8026 4.70293 14.8438 4.53373 14.8438H2.02482C1.45858 14.8438 1 14.3885 1 13.8264V6.68909C1 6.127 1.45858 5.67178 2.02482 5.67178H4.53441C4.70201 5.67178 4.86029 5.71341 5 5.78486Z" fill="#212121"/>
</svg>
