<svg width="12" height="12" viewBox="0 0 12 12" fill="none" xmlns="http://www.w3.org/2000/svg">
<path d="M1.60984 2.14017C1.46339 1.99372 1.46339 1.75628 1.60984 1.60983C1.75628 1.46339 1.99372 1.46339 2.14017 1.60983L6 5.46967L9.85984 1.60983C10.0063 1.46339 10.2437 1.46339 10.3902 1.60983C10.5366 1.75628 10.5366 1.99372 10.3902 2.14017L6.53033 6L10.3902 9.85984C10.5366 10.0063 10.5366 10.2437 10.3902 10.3902C10.2437 10.5366 10.0063 10.5366 9.85984 10.3902L6 6.53033L2.14017 10.3902C1.99372 10.5366 1.75628 10.5366 1.60984 10.3902C1.46339 10.2437 1.46339 10.0063 1.60984 9.85984L5.46967 6L1.60984 2.14017Z" fill="white"/>
</svg>
